<svg width="65" height="65" viewBox="0 0 65 65" fill="none" xmlns="http://www.w3.org/2000/svg">
<path d="M32.999 0.000355795C14.6896 -0.0822526 0.0703996 14.2303 0.000255704 32.3047C-0.0698882 50.4519 14.2998 64.9367 32.4352 64.9998C50.3272 65.062 64.9216 50.5691 64.9997 32.6609C65.0778 14.893 50.5634 0.0802994 32.999 0.000355795ZM58.9274 40.7032C57.9791 42.4228 57.2066 44.234 56.6641 46.1207C56.6419 46.198 56.6197 46.2752 56.5966 46.3525C55.1582 51.2069 51.9201 54.3638 46.4284 56.103C44.507 56.7114 42.6522 57.5162 40.9217 58.5492C40.5585 58.766 40.1909 58.9756 39.818 59.1781C35.2285 61.6697 30.5617 61.5294 25.2476 58.6194C23.5118 57.669 21.6694 56.9326 19.7657 56.3917C14.2546 54.8265 10.8823 51.7612 9.14826 47.7293C8.68212 46.6448 8.32518 45.5531 8.04994 44.4561C7.59533 42.644 6.96759 40.8764 6.14007 39.2011C3.86527 34.5964 3.78092 30.3851 5.29301 26.5869C5.60378 25.8052 5.95716 25.0609 6.34428 24.3467C7.15316 22.8544 7.79688 21.2796 8.28612 19.654C8.50454 18.9292 8.76469 18.2071 9.07546 17.4876C10.8575 13.3607 14.0273 10.5049 18.8059 8.87942C20.5134 8.2985 22.1471 7.52038 23.6965 6.59659C24.6128 6.05031 25.5815 5.56265 26.6176 5.1505C31.1362 3.35799 35.7523 3.76481 40.6997 6.53441C42.3219 7.4431 44.0453 8.15371 45.8273 8.684C51.8632 10.4801 55.1165 14.0242 56.6508 18.4993C56.8852 19.1841 57.0894 19.8699 57.2661 20.5565C57.7101 22.2806 58.3467 23.9461 59.1476 25.5361C61.8086 30.8186 61.5449 35.4287 59.5436 39.5209C59.3473 39.9224 59.1422 40.3159 58.9291 40.7023L58.9274 40.7032Z" fill="#6BBA51"/>
</svg>
