<svg width="55" height="59" viewBox="0 0 55 59" fill="none" xmlns="http://www.w3.org/2000/svg">
<path d="M14.5281 4.21118H50.5191C51.1396 4.21118 51.6433 4.72098 51.6433 5.34914V46.7667C51.6433 51.2291 48.0638 54.8524 43.6552 54.8524H13.4039V5.34914C13.4039 4.72098 13.9075 4.21118 14.5281 4.21118Z" fill="#F0F7EB" stroke="#595757" stroke-width="0.8" stroke-linecap="round" stroke-linejoin="round"/>
<path d="M34.0984 42.7092C34.7195 42.7092 35.2226 43.2185 35.2226 43.8472V46.8832C35.2226 51.286 38.7487 54.8552 43.0983 54.8552H13.4905C9.14095 54.8552 5.61487 51.286 5.61487 46.8832V43.8472C5.61487 43.2185 6.11795 42.7092 6.73908 42.7092H34.0984Z" fill="#6BBA51" stroke="#595757" stroke-width="0.8" stroke-linecap="round" stroke-linejoin="round"/>
<path d="M51.6432 42.7092V46.8832C51.6432 51.286 48.1171 54.8552 43.7675 54.8552" fill="#F0F7EB"/>
<path d="M51.6432 42.7092V46.8832C51.6432 51.286 48.1171 54.8552 43.7675 54.8552" stroke="#595757" stroke-width="0.8" stroke-linecap="round" stroke-linejoin="round"/>
<path d="M43.2528 8.21948C40.1431 8.20516 37.6602 10.6651 37.6482 13.7719C37.6363 16.8911 40.0769 19.3808 43.1571 19.3917C46.1961 19.4023 48.6746 16.9115 48.688 13.8333C48.7014 10.7793 46.2359 8.23306 43.2528 8.21948ZM47.7411 15.252C47.5757 15.5551 47.4413 15.8744 47.3467 16.2073C47.343 16.2208 47.3389 16.2344 47.3348 16.248C47.0842 17.1038 46.5201 17.6606 45.5631 17.9675C45.2283 18.0749 44.9051 18.2167 44.6034 18.3987C44.5401 18.4368 44.4761 18.4741 44.4113 18.5096C43.6118 18.9488 42.7985 18.9243 41.8725 18.4112C41.5701 18.2434 41.2491 18.1137 40.9173 18.0184C39.957 17.7424 39.3694 17.2018 39.0674 16.4908C38.9862 16.2996 38.924 16.107 38.876 15.9136C38.7966 15.5939 38.6875 15.2825 38.5434 14.9869C38.1472 14.1749 38.1323 13.4326 38.396 12.7627C38.4503 12.6251 38.5118 12.4935 38.5792 12.3676C38.7199 12.1044 38.8324 11.8266 38.9177 11.5401C38.9556 11.4123 39.0011 11.2848 39.0551 11.1582C39.3656 10.4306 39.9179 9.9269 40.7505 9.64038C41.048 9.53784 41.3325 9.40061 41.6029 9.23775C41.7626 9.14161 41.9313 9.05528 42.1119 8.9829C42.8991 8.6666 43.7034 8.73861 44.5655 9.22682C44.8481 9.38704 45.1486 9.5122 45.4588 9.6057C46.5104 9.92237 47.0775 10.5474 47.3449 11.3365C47.3858 11.4571 47.4212 11.5781 47.4521 11.6992C47.5296 12.003 47.6405 12.2971 47.7798 12.5772C48.2434 13.5087 48.1976 14.3215 47.8487 15.0431C47.8144 15.114 47.7787 15.1833 47.7414 15.2516L47.7411 15.252Z" fill="black"/>
</svg>
