<svg width="408" height="286" viewBox="0 0 408 286" fill="none" xmlns="http://www.w3.org/2000/svg">
<path d="M276.376 79.1926C276.744 59.6878 254.107 43.8364 225.284 43.4148C196.344 42.9901 173.059 58.0253 172.727 77.3464C172.398 96.4084 195.324 112.236 223.879 112.663C252.213 113.088 276.023 97.9083 276.376 79.1956V79.1926Z" fill="#5E8544" stroke="#595757" stroke-width="0.5" stroke-linecap="round" stroke-linejoin="round"/>
<path d="M276.508 72.9111C276.87 53.849 254.23 38.353 225.404 37.9344C196.464 37.5127 173.185 52.1955 172.856 71.0769C172.533 89.7052 195.462 105.177 224.02 105.605C252.354 106.026 276.161 91.1991 276.508 72.9111Z" fill="#6BBA51"/>
<path d="M225.488 37.0104C196.547 36.5887 173.268 51.2715 172.94 70.1529C172.921 71.1648 172.973 72.1648 173.09 73.1557C172.924 74.2279 172.828 75.3182 172.81 76.4205C172.481 95.4826 195.407 111.31 223.961 111.738C252.296 112.162 276.105 96.9825 276.458 78.2698C276.479 77.1916 276.425 76.1224 276.307 75.0682C276.476 74.0532 276.57 73.0262 276.591 71.9901C276.953 52.928 254.314 37.432 225.488 37.0134V37.0104Z" stroke="#595757" stroke-width="0.5" stroke-linecap="round" stroke-linejoin="round"/>
<path d="M213.769 94.3384C211.106 93.5704 208.303 92.965 205.392 92.5705C205.272 92.5554 205.154 92.5373 205.033 92.5223C197.546 91.4681 192.608 88.7063 189.779 83.8361C188.789 82.1314 187.498 80.499 185.863 78.987C185.519 78.6708 185.188 78.3485 184.865 78.0232C180.907 74.0054 180.983 69.7858 185.287 64.8403C186.693 63.226 187.767 61.5243 188.539 59.7774C190.774 54.7235 195.374 51.5249 201.504 49.7539C203.154 49.2781 204.816 48.9016 206.49 48.5974C209.257 48.0944 211.947 47.4408 214.49 46.6065C221.483 44.3205 227.938 44.0314 233.808 45.203C235.015 45.444 236.167 45.7241 237.274 46.0373C239.585 46.6909 242.022 47.1939 244.529 47.5523C245.648 47.7119 246.761 47.9107 247.874 48.1546C254.254 49.5552 258.731 52.2718 261.364 56.5035C262.306 58.0155 263.548 59.4521 265.011 60.8044C265.877 61.6026 266.652 62.4519 267.316 63.3675C270.2 67.3552 269.714 71.5447 265.615 76.1498C264.269 77.6618 263.232 79.252 262.471 80.8875C259.898 86.4263 254.559 89.5436 247.742 91.1549C246.698 91.4019 245.654 91.6187 244.604 91.8145C241.974 92.3024 239.437 92.962 237.024 93.7632C229.003 96.4317 221.926 96.4287 215.591 94.8294C214.97 94.6728 214.361 94.5071 213.76 94.3354L213.769 94.3384Z" fill="#626363"/>
<path d="M239.593 77.5745L262.89 65.8493L262.649 67.6323L238.99 79.493L239.593 77.5745Z" fill="#B9D7A4" stroke="#595757" stroke-width="0.5" stroke-linecap="round" stroke-linejoin="round"/>
<path d="M239.524 46.2392L262.896 66.0753L238.209 78.3637L239.524 46.2392Z" fill="#F0F7EB" stroke="#595757" stroke-width="0.5" stroke-linecap="round" stroke-linejoin="round"/>
<path d="M264.837 51.8325L260.982 81.6137L257.715 83.3817L261.558 49.8115L264.837 51.8325Z" fill="#B9D7A4" stroke="#595757" stroke-width="0.5" stroke-linecap="round" stroke-linejoin="round"/>
<path d="M257.713 83.3846L255.765 81.5534L259.219 51.8806L261.092 53.7118L257.713 83.3846Z" fill="#D0E2C9" stroke="#595757" stroke-width="0.5" stroke-linecap="round" stroke-linejoin="round"/>
<path d="M178.248 27.223L178.586 74.9218C178.586 74.9218 179.901 86.7523 190.885 86.3759C190.885 86.3759 196.634 98.357 213.672 94.0199C213.672 94.0199 225.961 98.1673 235.424 94.2247L238.229 34.1894L194.112 14.2238L178.248 27.22V27.223Z" fill="#F0F7EB" stroke="#595757" stroke-width="0.5" stroke-linecap="round" stroke-linejoin="round"/>
<path d="M214.527 53.0598C214.527 53.0598 224.874 55.7494 234.871 47.3071L233.755 70.2274C233.755 70.2274 223.314 80.4978 214.654 73.5073L214.524 53.0568L214.527 53.0598Z" fill="#BBD1AB" stroke="#595757" stroke-width="0.5" stroke-linecap="round" stroke-linejoin="round"/>
<path d="M179.254 54.444C179.254 54.444 185.758 61.7146 191.32 60.8984L190.617 85.0324C190.617 85.0324 180.545 83.4512 179.764 74.9577L179.64 73.4397L179.254 54.444Z" fill="#BBD1AB" stroke="#595757" stroke-width="0.5" stroke-linecap="round" stroke-linejoin="round"/>
<path d="M265.807 54.2531L265.288 57.8101L268.766 56.9849L269.427 53.461L265.807 54.2531Z" fill="#B9D7A4" stroke="#595757" stroke-width="0.5" stroke-linecap="round" stroke-linejoin="round"/>
<path d="M265.804 54.2532L251.001 41.8052L250.944 44.3321L265.233 57.8222L265.804 54.2532Z" fill="#D0E2C9" stroke="#595757" stroke-width="0.5" stroke-linecap="round" stroke-linejoin="round"/>
<path d="M239.436 60.0369L261.399 49.9351L261.061 53.9409L239.828 63.8439L239.436 60.0369Z" fill="#B9D7A4" stroke="#595757" stroke-width="0.5" stroke-linecap="round" stroke-linejoin="round"/>
<path d="M261.404 49.9349L258.605 48.3898L237.384 57.588L239.441 60.0367L261.404 49.9349Z" fill="#D0E2C9" stroke="#595757" stroke-width="0.5" stroke-linecap="round" stroke-linejoin="round"/>
<path d="M241.621 37.6585L239.268 92.5195L235.422 94.2272L238.194 33.8214L241.621 37.6585Z" fill="#B9D7A4" stroke="#595757" stroke-width="0.5" stroke-linecap="round" stroke-linejoin="round"/>
<path d="M270.577 51.2725C269.301 48.4142 265.219 46.0379 263.512 44.5109C260.954 42.2218 254.016 36.177 248.912 32.9303C243.808 29.6835 225.425 17.5728 225.425 17.5728L200.192 1.8208C200.192 1.8208 188.189 3.76345 184.762 11.2871C184.762 11.2871 179.124 16.6723 178.925 22.2593C178.925 22.2593 174.023 36.0114 190.409 39.725L192.113 40.0744C192.113 40.0744 202.876 47.9173 212.562 41.0803L213.434 40.4689C213.434 40.4689 217.645 42.9959 224.752 40.4238C230.137 38.4751 235.078 35.6921 237.159 34.4573C237.989 35.1952 238.529 35.6771 238.704 35.8397C240.891 37.8727 245.09 43.026 253.162 45.821C257.895 47.4595 260.004 50.5316 262.845 52.4862C264.353 53.5223 265.216 54.8506 268.483 54.5343C269.88 54.3988 271.457 53.2452 270.577 51.2725Z" fill="#B9D7A4" stroke="#595757" stroke-width="0.5" stroke-linecap="round" stroke-linejoin="round"/>
<path d="M269.927 50.2878C268.15 47.7277 265.36 44.3273 263.734 42.8726C261.176 40.5836 254.238 34.5388 249.134 31.292C244.03 28.0452 225.647 15.9346 225.647 15.9346L204.26 2.58602C201.533 0.884317 198.169 0.525906 195.156 1.63728C191.479 2.99262 186.897 5.4533 184.984 9.65183C184.984 9.65183 179.346 15.037 179.147 20.624C179.147 20.624 174.245 34.3762 190.631 38.0898L192.335 38.4392C192.335 38.4392 203.099 46.282 212.785 39.4451L213.656 38.8337C213.656 38.8337 217.868 41.3607 224.974 38.7885C230.359 36.8399 235.3 34.0569 237.382 32.822C238.211 33.5599 238.751 34.0418 238.926 34.2045C241.113 36.2375 245.312 41.3908 253.384 44.1858C258.117 45.8242 260.226 48.8963 263.067 50.851C264.576 51.8871 265.438 53.2213 268.708 52.8991C269.978 52.7726 270.657 51.3389 269.93 50.2908L269.927 50.2878Z" fill="#F0F7EB" stroke="#595757" stroke-width="0.5" stroke-linecap="round" stroke-linejoin="round"/>
<path d="M179.721 74.3748L190.765 69.1552" stroke="#595757" stroke-width="0.5" stroke-linecap="round" stroke-linejoin="round"/>
<path d="M233.755 70.2302C232.774 69.3146 217.369 53.4361 217.369 53.4361" stroke="#595757" stroke-width="0.5" stroke-linecap="round" stroke-linejoin="round"/>
<path d="M237.378 32.817L237.158 34.4524" stroke="#595757" stroke-width="0.5" stroke-linecap="round" stroke-linejoin="round"/>
<path d="M190.482 115.771C190.85 96.2664 168.214 80.4151 139.391 79.9934C110.45 79.5687 87.1654 94.6039 86.8335 113.925C86.5047 132.987 109.43 148.814 137.985 149.242C166.319 149.667 190.129 134.487 190.482 115.774V115.771Z" fill="#5E8544" stroke="#595757" stroke-width="0.5" stroke-linecap="round" stroke-linejoin="round"/>
<path d="M190.615 109.494C190.977 90.4322 168.338 74.9362 139.512 74.5175C110.571 74.0959 87.2926 88.7787 86.9638 107.66C86.641 126.288 109.57 141.76 138.127 142.188C166.462 142.61 190.268 127.782 190.615 109.494Z" fill="#6BBA51"/>
<path d="M139.602 73.5879C110.661 73.1662 87.3828 87.849 87.054 106.73C87.0359 107.742 87.0871 108.742 87.2048 109.733C87.0389 110.805 86.9423 111.896 86.9242 112.998C86.5954 132.06 109.521 147.887 138.076 148.315C166.41 148.74 190.22 133.56 190.573 114.847C190.594 113.769 190.54 112.7 190.422 111.646C190.591 110.631 190.684 109.604 190.705 108.568C191.067 89.5056 168.428 74.0096 139.602 73.5909V73.5879Z" stroke="#595757" stroke-width="0.5" stroke-linecap="round" stroke-linejoin="round"/>
<path d="M127.875 130.916C125.211 130.148 122.409 129.543 119.498 129.148C119.377 129.133 119.259 129.115 119.139 129.1C111.652 128.046 106.714 125.284 103.884 120.414C102.895 118.709 101.604 117.076 99.9686 115.565C99.6248 115.248 99.2929 114.926 98.9702 114.601C95.0125 110.583 95.0879 106.363 99.3925 101.418C100.798 99.8035 101.872 98.1018 102.644 96.3549C104.88 91.301 109.48 88.1024 115.609 86.3314C117.259 85.8556 118.922 85.4791 120.596 85.1749C123.362 84.6719 126.053 84.0183 128.596 83.1841C135.588 80.8981 142.043 80.6089 147.914 81.7805C149.12 82.0215 150.273 82.3016 151.38 82.6148C153.69 83.2684 156.128 83.7714 158.634 84.1298C159.754 84.2894 160.867 84.4882 161.98 84.7321C168.36 86.1327 172.836 88.8494 175.47 93.081C176.411 94.593 177.654 96.0296 179.117 97.3819C179.982 98.1801 180.758 99.0294 181.421 99.945C184.305 103.933 183.819 108.122 179.72 112.727C178.375 114.239 177.337 115.83 176.577 117.465C174.004 123.004 168.664 126.121 161.847 127.732C160.803 127.979 159.76 128.196 158.71 128.392C156.079 128.88 153.542 129.54 151.129 130.341C143.108 133.009 136.031 133.006 129.697 131.407C129.075 131.25 128.466 131.085 127.866 130.913L127.875 130.916Z" fill="#626363"/>
<path d="M153.707 114.151L177.003 102.429L176.762 104.212L153.103 116.073L153.707 114.151Z" fill="#B9D7A4" stroke="#595757" stroke-width="0.5" stroke-linecap="round" stroke-linejoin="round"/>
<path d="M153.631 82.8189L177.003 102.658L152.315 114.946L153.631 82.8189Z" fill="#F0F7EB" stroke="#595757" stroke-width="0.5" stroke-linecap="round" stroke-linejoin="round"/>
<path d="M178.946 88.4179L175.088 118.199L171.821 119.967L175.664 86.397L178.946 88.4179Z" fill="#B9D7A4" stroke="#595757" stroke-width="0.5" stroke-linecap="round" stroke-linejoin="round"/>
<path d="M171.819 119.961L169.87 118.13L173.324 88.457L175.197 90.2882L171.819 119.961Z" fill="#D0E2C9" stroke="#595757" stroke-width="0.5" stroke-linecap="round" stroke-linejoin="round"/>
<path d="M92.3524 63.8073L92.6903 111.506C92.6903 111.506 94.0055 123.337 104.989 122.96C104.989 122.96 110.738 134.941 127.776 130.604C127.776 130.604 140.065 134.752 149.528 130.809L152.333 70.7737L108.216 50.8081L92.3524 63.8043V63.8073Z" fill="#F0F7EB" stroke="#595757" stroke-width="0.5" stroke-linecap="round" stroke-linejoin="round"/>
<path d="M128.638 89.6418C128.638 89.6418 138.985 92.3314 148.982 83.8892L147.866 106.809C147.866 106.809 137.425 117.08 128.765 110.089L128.635 89.6388L128.638 89.6418Z" fill="#BBD1AB" stroke="#595757" stroke-width="0.5" stroke-linecap="round" stroke-linejoin="round"/>
<path d="M93.3671 91.0271C93.3671 91.0271 99.8708 98.2977 105.433 97.4815L104.73 121.616C104.73 121.616 94.6582 120.034 93.8769 111.541L93.7533 110.023L93.3671 91.0271Z" fill="#BBD1AB" stroke="#595757" stroke-width="0.5" stroke-linecap="round" stroke-linejoin="round"/>
<path d="M179.912 90.8329L179.393 94.3899L182.871 93.5616L183.532 90.0408L179.912 90.8329Z" fill="#B9D7A4" stroke="#595757" stroke-width="0.5" stroke-linecap="round" stroke-linejoin="round"/>
<path d="M179.909 90.8318L165.107 78.3838L165.049 80.9107L179.339 94.4008L179.909 90.8318Z" fill="#D0E2C9" stroke="#595757" stroke-width="0.5" stroke-linecap="round" stroke-linejoin="round"/>
<path d="M153.545 96.6178L175.509 86.516L175.171 90.5188L153.938 100.422L153.545 96.6178Z" fill="#B9D7A4" stroke="#595757" stroke-width="0.5" stroke-linecap="round" stroke-linejoin="round"/>
<path d="M175.507 86.5181L172.708 84.973L151.487 94.1712L153.544 96.6199L175.507 86.5181Z" fill="#D0E2C9" stroke="#595757" stroke-width="0.5" stroke-linecap="round" stroke-linejoin="round"/>
<path d="M155.729 74.2429L153.376 129.104L149.53 130.812L152.302 70.4058L155.729 74.2429Z" fill="#B9D7A4" stroke="#595757" stroke-width="0.5" stroke-linecap="round" stroke-linejoin="round"/>
<path d="M184.682 87.8481C183.406 84.9898 179.324 82.6135 177.617 81.0865C175.059 78.7974 168.121 72.7527 163.017 69.5059C157.913 66.2591 139.53 54.1484 139.53 54.1484L114.293 38.3994C114.293 38.3994 102.291 40.3421 98.8639 47.8657C98.8639 47.8657 93.226 53.2509 93.0269 58.8379C93.0269 58.8379 88.125 72.59 104.511 76.3036L106.215 76.653C106.215 76.653 116.978 84.4959 126.664 77.659L127.536 77.0476C127.536 77.0476 131.747 79.5745 138.854 77.0024C144.239 75.0537 149.18 72.2707 151.261 71.0359C152.091 71.7738 152.631 72.2557 152.806 72.4183C154.993 74.4513 159.192 79.6046 167.264 82.3996C171.997 84.0381 174.106 87.1102 176.947 89.0649C178.455 90.1009 179.318 91.4292 182.585 91.1129C183.982 90.9774 185.559 89.8239 184.679 87.8511L184.682 87.8481Z" fill="#B9D7A4" stroke="#595757" stroke-width="0.5" stroke-linecap="round" stroke-linejoin="round"/>
<path d="M184.033 86.8676C182.257 84.3075 179.466 80.9071 177.84 79.4524C175.282 77.1634 168.344 71.1186 163.24 67.8718C158.136 64.625 139.754 52.5143 139.754 52.5143L118.366 39.1658C115.639 37.4641 112.276 37.1057 109.262 38.2171C105.585 39.5724 101.003 42.0331 99.0906 46.2316C99.0906 46.2316 93.4527 51.6168 93.2536 57.2038C93.2536 57.2038 88.3517 70.9559 104.738 74.6695L106.442 75.0189C106.442 75.0189 117.205 82.8618 126.891 76.0249L127.763 75.4135C127.763 75.4135 131.974 77.9404 139.081 75.3683C144.465 73.4196 149.407 70.6367 151.488 69.4018C152.318 70.1397 152.857 70.6216 153.032 70.7843C155.219 72.8173 159.418 77.9705 167.491 80.7655C172.224 82.404 174.332 85.4761 177.174 87.4308C178.682 88.4669 179.545 89.8011 182.815 89.4788C184.085 89.3523 184.763 87.9187 184.036 86.8706L184.033 86.8676Z" fill="#F0F7EB" stroke="#595757" stroke-width="0.5" stroke-linecap="round" stroke-linejoin="round"/>
<path d="M93.8263 110.955L104.87 105.738" stroke="#595757" stroke-width="0.5" stroke-linecap="round" stroke-linejoin="round"/>
<path d="M147.863 106.811C146.883 105.895 131.477 90.017 131.477 90.017" stroke="#595757" stroke-width="0.5" stroke-linecap="round" stroke-linejoin="round"/>
<path d="M151.486 69.4024L151.266 71.0348" stroke="#595757" stroke-width="0.5" stroke-linecap="round" stroke-linejoin="round"/>
<path d="M104.652 153.173C105.02 133.668 82.3838 117.817 53.5607 117.395C24.62 116.97 1.33531 132.006 1.00349 151.327C0.67469 170.389 23.6004 186.216 52.155 186.644C80.4894 187.068 104.299 171.889 104.652 153.176V153.173Z" fill="#5E8544" stroke="#595757" stroke-width="0.5" stroke-linecap="round" stroke-linejoin="round"/>
<path d="M104.78 146.886C105.142 127.824 82.5024 112.328 53.6763 111.909C24.7356 111.487 1.45688 126.17 1.12808 145.052C0.805306 163.68 23.7341 179.152 52.2917 179.579C80.6261 180.001 104.433 165.174 104.78 146.886Z" fill="#6BBA51"/>
<path d="M53.7596 110.985C24.8189 110.563 1.54024 125.246 1.21143 144.128C1.19333 145.14 1.24461 146.139 1.36226 147.13C1.19635 148.203 1.09982 149.293 1.08172 150.395C0.752918 169.457 23.6786 185.285 52.2333 185.712C80.5677 186.137 104.377 170.957 104.73 152.244C104.751 151.166 104.697 150.097 104.579 149.043C104.748 148.028 104.842 147.001 104.863 145.965C105.225 126.903 82.5857 111.407 53.7596 110.988V110.985Z" stroke="#595757" stroke-width="0.5" stroke-linecap="round" stroke-linejoin="round"/>
<path d="M42.0401 168.315C39.3765 167.547 36.5741 166.942 33.6632 166.547C33.5425 166.532 33.4248 166.514 33.3042 166.499C25.8171 165.445 20.879 162.683 18.0495 157.813C17.0601 156.108 15.769 154.476 14.1341 152.964C13.7902 152.648 13.4583 152.325 13.1356 152C9.17787 147.982 9.25328 143.763 13.5579 138.817C14.9636 137.203 16.0375 135.501 16.8097 133.754C19.045 128.7 23.6452 125.502 29.7748 123.731C31.4249 123.255 33.087 122.879 34.7612 122.574C37.5273 122.071 40.2181 121.418 42.7611 120.583C49.7534 118.297 56.2088 118.008 62.079 119.18C63.2856 119.421 64.4379 119.701 65.545 120.014C67.8557 120.668 70.293 121.171 72.7998 121.529C73.9189 121.689 75.032 121.888 76.1451 122.132C82.5251 123.532 87.0017 126.249 89.6351 130.48C90.5763 131.992 91.8191 133.429 93.2821 134.781C94.1479 135.58 94.9231 136.429 95.5868 137.344C98.4706 141.332 97.9849 145.522 93.8854 150.127C92.5401 151.639 91.5024 153.229 90.7422 154.864C88.1691 160.403 82.8298 163.52 76.0124 165.132C74.9687 165.379 73.925 165.596 72.8752 165.791C70.2448 166.279 67.7079 166.939 65.2946 167.74C57.2736 170.409 50.1968 170.406 43.8621 168.806C43.2407 168.65 42.6313 168.484 42.031 168.312L42.0401 168.315Z" fill="#626363"/>
<path d="M67.8716 151.55L91.1684 139.825L90.9241 141.608L67.2653 153.469L67.8716 151.55Z" fill="#B9D7A4" stroke="#595757" stroke-width="0.5" stroke-linecap="round" stroke-linejoin="round"/>
<path d="M67.799 120.215L91.1682 140.051L66.4808 152.339L67.799 120.215Z" fill="#F0F7EB" stroke="#595757" stroke-width="0.5" stroke-linecap="round" stroke-linejoin="round"/>
<path d="M93.1116 125.807L89.2565 155.588L85.9866 157.356L89.8327 123.786L93.1116 125.807Z" fill="#B9D7A4" stroke="#595757" stroke-width="0.5" stroke-linecap="round" stroke-linejoin="round"/>
<path d="M85.9867 157.356L84.0411 155.525L87.492 125.852L89.3683 127.683L85.9867 157.356Z" fill="#D0E2C9" stroke="#595757" stroke-width="0.5" stroke-linecap="round" stroke-linejoin="round"/>
<path d="M6.51899 101.203L6.85684 148.902C6.85684 148.902 8.17206 160.733 19.1553 160.356C19.1553 160.356 24.9048 172.337 41.9423 168C41.9423 168 54.2317 172.148 63.6945 168.205L66.4999 108.17L22.383 88.2042L6.51899 101.2V101.203Z" fill="#F0F7EB" stroke="#595757" stroke-width="0.5" stroke-linecap="round" stroke-linejoin="round"/>
<path d="M42.7979 127.032C42.7979 127.032 53.1447 129.722 63.1415 121.28L62.0254 144.2C62.0254 144.2 51.5851 154.47 42.9246 147.48L42.7949 127.029L42.7979 127.032Z" fill="#BBD1AB" stroke="#595757" stroke-width="0.5" stroke-linecap="round" stroke-linejoin="round"/>
<path d="M7.52461 128.419C7.52461 128.419 14.0283 135.689 19.5908 134.873L18.8879 159.007C18.8879 159.007 8.81569 157.426 8.0344 148.932L7.91073 147.414L7.52461 128.419Z" fill="#BBD1AB" stroke="#595757" stroke-width="0.5" stroke-linecap="round" stroke-linejoin="round"/>
<path d="M94.0776 128.227L93.5587 131.784L97.0398 130.958L97.6974 127.435L94.0776 128.227Z" fill="#B9D7A4" stroke="#595757" stroke-width="0.5" stroke-linecap="round" stroke-linejoin="round"/>
<path d="M94.0754 128.227L79.2732 115.779L79.2159 118.306L93.5053 131.796L94.0754 128.227Z" fill="#D0E2C9" stroke="#595757" stroke-width="0.5" stroke-linecap="round" stroke-linejoin="round"/>
<path d="M67.7109 134.009L89.6743 123.908L89.3334 127.913L68.103 137.816L67.7109 134.009Z" fill="#B9D7A4" stroke="#595757" stroke-width="0.5" stroke-linecap="round" stroke-linejoin="round"/>
<path d="M89.6727 123.911L86.8734 122.366L65.652 131.564L67.7093 134.013L89.6727 123.911Z" fill="#D0E2C9" stroke="#595757" stroke-width="0.5" stroke-linecap="round" stroke-linejoin="round"/>
<path d="M69.8961 111.634L67.5402 166.495L63.6941 168.203L66.4693 107.797L69.8961 111.634Z" fill="#B9D7A4" stroke="#595757" stroke-width="0.5" stroke-linecap="round" stroke-linejoin="round"/>
<path d="M98.8515 125.241C97.5755 122.382 93.4941 120.006 91.7867 118.479C89.2287 116.19 82.2907 110.145 77.1867 106.899C72.0827 103.652 53.6999 91.5411 53.6999 91.5411L28.4634 75.7921C28.4634 75.7921 16.4606 77.7347 13.0338 85.2583C13.0338 85.2583 7.39591 90.6435 7.19682 96.2305C7.19682 96.2305 2.29493 109.983 18.6808 113.696L20.3851 114.046C20.3851 114.046 31.1482 121.889 40.8343 115.052L41.7061 114.44C41.7061 114.44 45.9172 116.967 53.0242 114.395C58.4087 112.446 63.3498 109.663 65.4312 108.429C66.2607 109.166 66.8007 109.648 66.9757 109.811C69.1627 111.844 73.3617 116.997 81.434 119.792C86.1669 121.431 88.2755 124.503 91.1171 126.458C92.6253 127.494 93.4881 128.822 96.755 128.506C98.1516 128.37 99.7293 127.216 98.8485 125.244L98.8515 125.241Z" fill="#B9D7A4" stroke="#595757" stroke-width="0.5" stroke-linecap="round" stroke-linejoin="round"/>
<path d="M98.2011 124.264C96.4244 121.703 93.6341 118.303 92.0082 116.848C89.4501 114.559 82.5121 108.515 77.4081 105.268C72.3041 102.021 53.9213 89.9103 53.9213 89.9103L32.534 76.5618C29.8071 74.8601 26.4436 74.5017 23.4301 75.613C19.7529 76.9684 15.1708 79.4291 13.2583 83.6276C13.2583 83.6276 7.62038 89.0128 7.42129 94.5998C7.42129 94.5998 2.51941 108.352 18.9053 112.066L20.6096 112.415C20.6096 112.415 31.3726 120.258 41.0588 113.421L41.9305 112.809C41.9305 112.809 46.1416 115.336 53.2486 112.764C58.6331 110.816 63.5742 108.033 65.6557 106.798C66.4852 107.536 67.0252 108.018 67.2001 108.18C69.3871 110.213 73.5862 115.367 81.6584 118.162C86.3914 119.8 88.4999 122.872 91.3415 124.827C92.8498 125.863 93.7125 127.197 96.9825 126.875C98.2524 126.748 98.9311 125.315 98.2042 124.267L98.2011 124.264Z" fill="#F0F7EB" stroke="#595757" stroke-width="0.5" stroke-linecap="round" stroke-linejoin="round"/>
<path d="M7.9917 148.349L19.0353 143.13" stroke="#595757" stroke-width="0.5" stroke-linecap="round" stroke-linejoin="round"/>
<path d="M62.031 144.203C61.0506 143.287 45.6451 127.408 45.6451 127.408" stroke="#595757" stroke-width="0.5" stroke-linecap="round" stroke-linejoin="round"/>
<path d="M65.6553 106.792L65.4321 108.427" stroke="#595757" stroke-width="0.5" stroke-linecap="round" stroke-linejoin="round"/>
<path d="M335.603 130.645C335.971 111.14 313.335 95.2884 284.511 94.8667C255.571 94.4421 232.286 109.477 231.954 128.798C231.625 147.86 254.551 163.688 283.106 164.115C311.44 164.54 335.25 149.36 335.603 130.648V130.645Z" fill="#5E8544" stroke="#595757" stroke-width="0.5" stroke-linecap="round" stroke-linejoin="round"/>
<path d="M335.735 124.361C336.097 105.299 313.458 89.8028 284.632 89.3842C255.691 88.9625 232.412 103.645 232.083 122.527C231.761 141.155 254.689 156.627 283.247 157.055C311.581 157.476 335.388 142.649 335.735 124.361Z" fill="#6BBA51"/>
<path d="M284.71 88.459C255.77 88.0373 232.491 102.72 232.162 121.601C232.144 122.613 232.195 123.613 232.313 124.604C232.147 125.677 232.051 126.767 232.032 127.869C231.704 146.931 254.629 162.758 283.184 163.186C311.518 163.611 335.328 148.431 335.681 129.718C335.702 128.64 335.648 127.571 335.53 126.517C335.699 125.502 335.792 124.475 335.814 123.439C336.176 104.377 313.536 88.8807 284.71 88.462V88.459Z" stroke="#595757" stroke-width="0.5" stroke-linecap="round" stroke-linejoin="round"/>
<path d="M272.992 145.789C270.328 145.021 267.526 144.416 264.615 144.021C264.494 144.006 264.377 143.988 264.256 143.973C256.769 142.919 251.831 140.157 249.001 135.287C248.012 133.582 246.721 131.95 245.086 130.438C244.742 130.122 244.41 129.799 244.087 129.474C240.13 125.456 240.205 121.237 244.51 116.291C245.915 114.677 246.989 112.975 247.762 111.228C249.997 106.174 254.597 102.976 260.727 101.205C262.377 100.729 264.039 100.353 265.713 100.048C268.479 99.5453 271.17 98.8918 273.713 98.0575C280.705 95.7715 287.161 95.4823 293.031 96.6539C294.237 96.8949 295.39 97.175 296.497 97.4882C298.808 98.1418 301.245 98.6448 303.752 99.0032C304.871 99.1628 305.984 99.3616 307.097 99.6056C313.477 101.006 317.953 103.723 320.587 107.954C321.528 109.466 322.771 110.903 324.234 112.255C325.1 113.054 325.875 113.903 326.539 114.818C329.422 118.806 328.937 122.996 324.837 127.601C323.492 129.113 322.454 130.703 321.694 132.338C319.121 137.877 313.782 140.994 306.964 142.606C305.921 142.853 304.877 143.07 303.827 143.265C301.197 143.753 298.66 144.413 296.246 145.214C288.225 147.883 281.149 147.88 274.814 146.28C274.193 146.124 273.583 145.958 272.983 145.786L272.992 145.789Z" fill="#626363"/>
<path d="M298.822 129.023L322.118 117.298L321.877 119.081L298.218 130.942L298.822 129.023Z" fill="#B9D7A4" stroke="#595757" stroke-width="0.5" stroke-linecap="round" stroke-linejoin="round"/>
<path d="M298.751 97.6877L322.123 117.527L297.436 129.815L298.751 97.6877Z" fill="#F0F7EB" stroke="#595757" stroke-width="0.5" stroke-linecap="round" stroke-linejoin="round"/>
<path d="M324.06 103.285L320.205 133.066L316.935 134.834L320.781 101.264L324.06 103.285Z" fill="#B9D7A4" stroke="#595757" stroke-width="0.5" stroke-linecap="round" stroke-linejoin="round"/>
<path d="M316.935 134.834L314.99 133.003L318.44 103.327L320.317 105.158L316.935 134.834Z" fill="#D0E2C9" stroke="#595757" stroke-width="0.5" stroke-linecap="round" stroke-linejoin="round"/>
<path d="M237.47 78.6784L237.808 126.377C237.808 126.377 239.123 138.208 250.106 137.831C250.106 137.831 255.856 149.812 272.893 145.475C272.893 145.475 285.182 149.623 294.645 145.68L297.451 85.6448L253.334 65.6792L237.47 78.6754V78.6784Z" fill="#F0F7EB" stroke="#595757" stroke-width="0.5" stroke-linecap="round" stroke-linejoin="round"/>
<path d="M273.754 104.511C273.754 104.511 284.101 107.2 294.098 98.758L292.982 121.678C292.982 121.678 282.541 131.949 273.881 124.958L273.751 104.508L273.754 104.511Z" fill="#BBD1AB" stroke="#595757" stroke-width="0.5" stroke-linecap="round" stroke-linejoin="round"/>
<path d="M238.475 105.893C238.475 105.893 244.979 113.163 250.542 112.347L249.839 136.481C249.839 136.481 239.766 134.9 238.985 126.406L238.861 124.888L238.475 105.893Z" fill="#BBD1AB" stroke="#595757" stroke-width="0.5" stroke-linecap="round" stroke-linejoin="round"/>
<path d="M325.028 105.701L324.509 109.261L327.988 108.432L328.648 104.909L325.028 105.701Z" fill="#B9D7A4" stroke="#595757" stroke-width="0.5" stroke-linecap="round" stroke-linejoin="round"/>
<path d="M325.029 105.699L310.227 93.2538L310.167 95.7777L324.459 109.271L325.029 105.699Z" fill="#D0E2C9" stroke="#595757" stroke-width="0.5" stroke-linecap="round" stroke-linejoin="round"/>
<path d="M298.66 111.485L320.624 101.386L320.286 105.389L299.053 115.292L298.66 111.485Z" fill="#B9D7A4" stroke="#595757" stroke-width="0.5" stroke-linecap="round" stroke-linejoin="round"/>
<path d="M320.621 101.387L317.822 99.8419L296.6 109.04L298.658 111.486L320.621 101.387Z" fill="#D0E2C9" stroke="#595757" stroke-width="0.5" stroke-linecap="round" stroke-linejoin="round"/>
<path d="M300.847 89.1117L298.494 143.973L294.645 145.68L297.42 85.2746L300.847 89.1117Z" fill="#B9D7A4" stroke="#595757" stroke-width="0.5" stroke-linecap="round" stroke-linejoin="round"/>
<path d="M329.803 102.716C328.527 99.8576 324.446 97.4812 322.739 95.9542C320.181 93.6652 313.243 87.6204 308.139 84.3736C303.035 81.1268 284.652 69.0161 284.652 69.0161L259.415 53.2672C259.415 53.2672 247.412 55.2098 243.986 62.7334C243.986 62.7334 238.348 68.1186 238.149 73.7056C238.149 73.7056 233.247 87.4577 249.633 91.1714L251.337 91.5207C251.337 91.5207 262.1 99.3636 271.786 92.5267L272.658 91.9153C272.658 91.9153 276.869 94.4422 283.976 91.8701C289.361 89.9214 294.302 87.1385 296.383 85.9036C297.213 86.6415 297.753 87.1234 297.928 87.2861C300.115 89.3191 304.314 94.4724 312.386 97.2674C317.119 98.9058 319.227 101.978 322.069 103.933C323.577 104.969 324.44 106.297 327.707 105.981C329.104 105.845 330.681 104.692 329.8 102.719L329.803 102.716Z" fill="#B9D7A4" stroke="#595757" stroke-width="0.5" stroke-linecap="round" stroke-linejoin="round"/>
<path d="M329.152 101.736C327.375 99.1763 324.585 95.7759 322.959 94.3212C320.401 92.0322 313.463 85.9874 308.359 82.7406C303.255 79.4938 284.872 67.3832 284.872 67.3832L263.485 54.0346C260.758 52.3329 257.394 51.9745 254.381 53.0859C250.704 54.4412 246.122 56.9019 244.209 61.1004C244.209 61.1004 238.571 66.4856 238.372 72.0726C238.372 72.0726 233.47 85.8248 249.856 89.5384L251.56 89.8878C251.56 89.8878 262.323 97.7306 272.009 90.8937L272.881 90.2823C272.881 90.2823 277.092 92.8093 284.199 90.2371C289.584 88.2885 294.525 85.5055 296.606 84.2707C297.436 85.0086 297.976 85.4905 298.151 85.6531C300.338 87.6861 304.537 92.8394 312.609 95.6344C317.342 97.2728 319.451 100.345 322.292 102.3C323.801 103.336 324.663 104.67 327.933 104.348C329.203 104.221 329.882 102.788 329.155 101.739L329.152 101.736Z" fill="#F0F7EB" stroke="#595757" stroke-width="0.5" stroke-linecap="round" stroke-linejoin="round"/>
<path d="M238.942 125.823L249.986 120.606" stroke="#595757" stroke-width="0.5" stroke-linecap="round" stroke-linejoin="round"/>
<path d="M292.983 121.679C292.002 120.763 276.597 104.885 276.597 104.885" stroke="#595757" stroke-width="0.5" stroke-linecap="round" stroke-linejoin="round"/>
<path d="M296.604 84.2712L296.381 85.9037" stroke="#595757" stroke-width="0.5" stroke-linecap="round" stroke-linejoin="round"/>
<path d="M249.709 167.224C250.077 147.72 227.441 131.868 198.618 131.447C169.677 131.022 146.392 146.057 146.061 165.378C145.732 184.44 168.658 200.267 197.212 200.695C225.547 201.12 249.356 185.94 249.709 167.227V167.224Z" fill="#5E8544" stroke="#595757" stroke-width="0.5" stroke-linecap="round" stroke-linejoin="round"/>
<path d="M249.841 160.944C250.203 141.882 227.564 126.386 198.738 125.967C169.797 125.546 146.519 140.228 146.19 159.11C145.867 177.738 168.796 193.21 197.353 193.638C225.688 194.059 249.494 179.232 249.841 160.944Z" fill="#6BBA51"/>
<path d="M198.819 125.039C169.878 124.617 146.6 139.3 146.271 158.181C146.253 159.193 146.304 160.193 146.422 161.184C146.256 162.256 146.159 163.347 146.141 164.449C145.812 183.511 168.738 199.338 197.293 199.766C225.627 200.191 249.437 185.011 249.79 166.298C249.811 165.22 249.756 164.151 249.639 163.097C249.808 162.082 249.901 161.055 249.922 160.018C250.284 140.956 227.645 125.46 198.819 125.042V125.039Z" stroke="#595757" stroke-width="0.5" stroke-linecap="round" stroke-linejoin="round"/>
<path d="M187.101 182.369C184.437 181.601 181.635 180.996 178.724 180.601C178.603 180.586 178.485 180.568 178.365 180.553C170.878 179.499 165.94 176.737 163.11 171.867C162.121 170.162 160.83 168.53 159.195 167.018C158.851 166.701 158.519 166.379 158.196 166.054C154.238 162.036 154.314 157.816 158.618 152.871C160.024 151.257 161.098 149.555 161.87 147.808C164.106 142.754 168.706 139.556 174.835 137.785C176.485 137.309 178.148 136.932 179.822 136.628C182.588 136.125 185.279 135.471 187.822 134.637C194.814 132.351 201.269 132.062 207.14 133.234C208.346 133.475 209.498 133.755 210.606 134.068C212.916 134.722 215.354 135.225 217.86 135.583C218.979 135.743 220.093 135.941 221.206 136.185C227.586 137.586 232.062 140.302 234.696 144.534C235.637 146.046 236.88 147.483 238.343 148.835C239.208 149.633 239.984 150.483 240.647 151.398C243.531 155.386 243.045 159.575 238.946 164.18C237.601 165.692 236.563 167.283 235.803 168.918C233.23 174.457 227.89 177.574 221.073 179.186C220.029 179.433 218.986 179.649 217.936 179.845C215.305 180.333 212.768 180.993 210.355 181.794C202.334 184.462 195.257 184.459 188.923 182.86C188.301 182.703 187.692 182.538 187.092 182.366L187.101 182.369Z" fill="#626363"/>
<path d="M212.927 165.601L236.224 153.875L235.982 155.658L212.324 167.519L212.927 165.601Z" fill="#B9D7A4" stroke="#595757" stroke-width="0.5" stroke-linecap="round" stroke-linejoin="round"/>
<path d="M212.857 134.271L236.229 154.11L211.541 166.395L212.857 134.271Z" fill="#F0F7EB" stroke="#595757" stroke-width="0.5" stroke-linecap="round" stroke-linejoin="round"/>
<path d="M238.168 139.862L234.313 169.647L231.043 171.412L234.889 137.844L238.168 139.862Z" fill="#B9D7A4" stroke="#595757" stroke-width="0.5" stroke-linecap="round" stroke-linejoin="round"/>
<path d="M231.044 171.411L229.098 169.579L232.552 139.907L234.425 141.738L231.044 171.411Z" fill="#D0E2C9" stroke="#595757" stroke-width="0.5" stroke-linecap="round" stroke-linejoin="round"/>
<path d="M151.575 115.259L151.913 162.958C151.913 162.958 153.228 174.789 164.211 174.412C164.211 174.412 169.961 186.393 186.998 182.056C186.998 182.056 199.288 186.204 208.751 182.261L211.556 122.226L167.439 102.26L151.575 115.256V115.259Z" fill="#F0F7EB" stroke="#595757" stroke-width="0.5" stroke-linecap="round" stroke-linejoin="round"/>
<path d="M187.86 141.092C187.86 141.092 198.206 143.781 208.203 135.339L207.087 158.259C207.087 158.259 196.647 168.53 187.986 161.539L187.857 141.088L187.86 141.092Z" fill="#BBD1AB" stroke="#595757" stroke-width="0.5" stroke-linecap="round" stroke-linejoin="round"/>
<path d="M152.585 142.475C152.585 142.475 159.089 149.745 164.651 148.929L163.948 173.063C163.948 173.063 153.876 171.482 153.095 162.988L152.971 161.47L152.585 142.475Z" fill="#BBD1AB" stroke="#595757" stroke-width="0.5" stroke-linecap="round" stroke-linejoin="round"/>
<path d="M239.134 142.281L238.615 145.842L242.093 145.013L242.753 141.489L239.134 142.281Z" fill="#B9D7A4" stroke="#595757" stroke-width="0.5" stroke-linecap="round" stroke-linejoin="round"/>
<path d="M239.134 142.281L224.332 129.836L224.272 132.36L238.564 145.853L239.134 142.281Z" fill="#D0E2C9" stroke="#595757" stroke-width="0.5" stroke-linecap="round" stroke-linejoin="round"/>
<path d="M212.768 148.068L234.731 137.969L234.394 141.972L213.16 151.875L212.768 148.068Z" fill="#B9D7A4" stroke="#595757" stroke-width="0.5" stroke-linecap="round" stroke-linejoin="round"/>
<path d="M234.73 137.97L231.931 136.425L210.709 145.623L212.766 148.069L234.73 137.97Z" fill="#D0E2C9" stroke="#595757" stroke-width="0.5" stroke-linecap="round" stroke-linejoin="round"/>
<path d="M214.952 125.69L212.599 180.551L208.75 182.259L211.525 121.853L214.952 125.69Z" fill="#B9D7A4" stroke="#595757" stroke-width="0.5" stroke-linecap="round" stroke-linejoin="round"/>
<path d="M243.908 139.301C242.632 136.443 238.55 134.067 236.843 132.54C234.285 130.251 227.347 124.206 222.243 120.959C217.139 117.712 198.756 105.602 198.756 105.602L173.519 89.8526C173.519 89.8526 161.517 91.7952 158.09 99.3189C158.09 99.3189 152.452 104.704 152.253 110.291C152.253 110.291 147.351 124.043 163.737 127.757L165.441 128.106C165.441 128.106 176.204 135.949 185.89 129.112L186.762 128.501C186.762 128.501 190.973 131.028 198.08 128.456C203.465 126.507 208.406 123.724 210.487 122.489C211.317 123.227 211.857 123.709 212.032 123.872C214.219 125.905 218.418 131.058 226.49 133.853C231.223 135.491 233.332 138.563 236.173 140.518C237.681 141.554 238.544 142.882 241.811 142.566C243.208 142.431 244.785 141.277 243.905 139.304L243.908 139.301Z" fill="#B9D7A4" stroke="#595757" stroke-width="0.5" stroke-linecap="round" stroke-linejoin="round"/>
<path d="M243.258 138.32C241.482 135.759 238.691 132.359 237.065 130.904C234.507 128.615 227.569 122.571 222.465 119.324C217.361 116.077 198.978 103.966 198.978 103.966L177.591 90.6178C174.864 88.9161 171.501 88.5576 168.487 89.669C164.81 91.0244 160.228 93.485 158.315 97.6836C158.315 97.6836 152.678 103.069 152.478 108.656C152.478 108.656 147.577 122.408 163.962 126.122L165.667 126.471C165.667 126.471 176.43 134.314 186.116 127.477L186.988 126.865C186.988 126.865 191.199 129.392 198.306 126.82C203.69 124.872 208.631 122.089 210.713 120.854C211.542 121.592 212.082 122.074 212.257 122.236C214.444 124.269 218.643 129.423 226.716 132.218C231.449 133.856 233.557 136.928 236.399 138.883C237.907 139.919 238.77 141.253 242.04 140.931C243.31 140.804 243.988 139.371 243.261 138.323L243.258 138.32Z" fill="#F0F7EB" stroke="#595757" stroke-width="0.5" stroke-linecap="round" stroke-linejoin="round"/>
<path d="M153.049 162.402L164.092 157.186" stroke="#595757" stroke-width="0.5" stroke-linecap="round" stroke-linejoin="round"/>
<path d="M207.087 158.262C206.107 157.346 190.701 141.468 190.701 141.468" stroke="#595757" stroke-width="0.5" stroke-linecap="round" stroke-linejoin="round"/>
<path d="M210.711 120.848L210.488 122.483" stroke="#595757" stroke-width="0.5" stroke-linecap="round" stroke-linejoin="round"/>
<path d="M163.875 204.619C164.243 185.114 141.606 169.263 112.783 168.841C83.8426 168.417 60.5579 183.452 60.2261 202.773C59.8973 221.835 82.823 237.662 111.378 238.09C139.712 238.515 163.522 223.335 163.875 204.622V204.619Z" fill="#5E8544" stroke="#595757" stroke-width="0.5" stroke-linecap="round" stroke-linejoin="round"/>
<path d="M164.007 198.335C164.369 179.273 141.729 163.777 112.903 163.359C83.9627 162.937 60.684 177.62 60.3552 196.501C60.0324 215.13 82.9612 230.601 111.519 231.029C139.853 231.451 163.66 216.623 164.007 198.335Z" fill="#6BBA51"/>
<path d="M112.987 162.431C84.046 162.01 60.7674 176.693 60.4386 195.574C60.4205 196.586 60.4717 197.586 60.5894 198.577C60.4235 199.649 60.3269 200.739 60.3088 201.842C59.98 220.904 82.9058 236.731 111.46 237.159C139.795 237.583 163.604 222.403 163.957 203.691C163.978 202.613 163.924 201.543 163.806 200.489C163.975 199.474 164.069 198.447 164.09 197.411C164.452 178.349 141.813 162.853 112.987 162.434V162.431Z" stroke="#595757" stroke-width="0.5" stroke-linecap="round" stroke-linejoin="round"/>
<path d="M101.263 219.764C98.5991 218.996 95.7967 218.391 92.8857 217.996C92.7651 217.981 92.6474 217.963 92.5268 217.948C85.0397 216.894 80.1016 214.132 77.2721 209.262C76.2827 207.557 74.9916 205.924 73.3566 204.413C73.0128 204.096 72.6809 203.774 72.3582 203.449C68.4005 199.431 68.4759 195.211 72.7805 190.266C74.1862 188.652 75.2601 186.95 76.0323 185.203C78.2676 180.149 82.8678 176.95 88.9974 175.179C90.6475 174.704 92.3096 174.327 93.9838 174.023C96.7499 173.52 99.4407 172.866 101.984 172.032C108.976 169.746 115.431 169.457 121.302 170.629C122.508 170.87 123.661 171.15 124.768 171.463C127.078 172.116 129.516 172.619 132.022 172.978C133.142 173.137 134.255 173.336 135.368 173.58C141.748 174.981 146.224 177.697 148.858 181.929C149.799 183.441 151.042 184.878 152.505 186.23C153.37 187.028 154.146 187.877 154.809 188.793C157.693 192.781 157.208 196.97 153.108 201.575C151.763 203.087 150.725 204.678 149.965 206.313C147.392 211.852 142.052 214.969 135.235 216.58C134.191 216.827 133.148 217.044 132.098 217.24C129.467 217.728 126.93 218.388 124.517 219.189C116.496 221.857 109.419 221.854 103.085 220.255C102.463 220.098 101.854 219.933 101.254 219.761L101.263 219.764Z" fill="#626363"/>
<path d="M127.092 202.995L150.389 191.27L150.148 193.056L126.489 204.914L127.092 202.995Z" fill="#B9D7A4" stroke="#595757" stroke-width="0.5" stroke-linecap="round" stroke-linejoin="round"/>
<path d="M127.022 171.661L150.391 191.5L125.703 203.789L127.022 171.661Z" fill="#F0F7EB" stroke="#595757" stroke-width="0.5" stroke-linecap="round" stroke-linejoin="round"/>
<path d="M152.333 177.26L148.478 207.042L145.208 208.81L149.051 175.239L152.333 177.26Z" fill="#B9D7A4" stroke="#595757" stroke-width="0.5" stroke-linecap="round" stroke-linejoin="round"/>
<path d="M145.212 208.81L143.264 206.979L146.718 177.303L148.591 179.134L145.212 208.81Z" fill="#D0E2C9" stroke="#595757" stroke-width="0.5" stroke-linecap="round" stroke-linejoin="round"/>
<path d="M65.7404 152.651L66.0783 200.35C66.0783 200.35 67.3935 212.18 78.3767 211.804C78.3767 211.804 84.1263 223.785 101.164 219.448C101.164 219.448 113.453 223.595 122.916 219.653L125.721 159.617L81.6044 139.652L65.7404 152.648V152.651Z" fill="#F0F7EB" stroke="#595757" stroke-width="0.5" stroke-linecap="round" stroke-linejoin="round"/>
<path d="M102.026 178.485C102.026 178.485 112.373 181.175 122.37 172.733L121.254 195.653C121.254 195.653 110.813 205.923 102.153 198.933L102.023 178.482L102.026 178.485Z" fill="#BBD1AB" stroke="#595757" stroke-width="0.5" stroke-linecap="round" stroke-linejoin="round"/>
<path d="M66.7529 179.865C66.7529 179.865 73.2565 187.136 78.819 186.319L78.1162 210.453C78.1162 210.453 68.0439 208.872 67.2627 200.379L67.139 198.861L66.7529 179.865Z" fill="#BBD1AB" stroke="#595757" stroke-width="0.5" stroke-linecap="round" stroke-linejoin="round"/>
<path d="M153.299 179.675L152.78 183.235L156.258 182.407L156.919 178.883L153.299 179.675Z" fill="#B9D7A4" stroke="#595757" stroke-width="0.5" stroke-linecap="round" stroke-linejoin="round"/>
<path d="M153.303 179.677L138.5 167.232L138.443 169.756L152.732 183.249L153.303 179.677Z" fill="#D0E2C9" stroke="#595757" stroke-width="0.5" stroke-linecap="round" stroke-linejoin="round"/>
<path d="M126.935 185.461L148.895 175.362L148.557 179.365L127.324 189.268L126.935 185.461Z" fill="#B9D7A4" stroke="#595757" stroke-width="0.5" stroke-linecap="round" stroke-linejoin="round"/>
<path d="M148.895 175.363L146.096 173.818L124.875 183.016L126.935 185.461L148.895 175.363Z" fill="#D0E2C9" stroke="#595757" stroke-width="0.5" stroke-linecap="round" stroke-linejoin="round"/>
<path d="M129.114 163.085L126.762 217.946L122.915 219.654L125.691 159.248L129.114 163.085Z" fill="#B9D7A4" stroke="#595757" stroke-width="0.5" stroke-linecap="round" stroke-linejoin="round"/>
<path d="M158.073 176.692C156.797 173.833 152.716 171.457 151.008 169.93C148.45 167.641 141.512 161.596 136.408 158.349C131.304 155.103 112.921 142.992 112.921 142.992L87.6849 127.243C87.6849 127.243 75.6821 129.186 72.2553 136.709C72.2553 136.709 66.6174 142.094 66.4183 147.681C66.4183 147.681 61.5164 161.434 77.9022 165.147L79.6066 165.497C79.6066 165.497 90.3696 173.339 100.056 166.502L100.928 165.891C100.928 165.891 105.139 168.418 112.246 165.846C117.63 163.897 122.571 161.114 124.653 159.879C125.482 160.617 126.022 161.099 126.197 161.262C128.384 163.295 132.583 168.448 140.655 171.243C145.388 172.882 147.497 175.954 150.339 177.908C151.847 178.944 152.71 180.273 155.976 179.956C157.373 179.821 158.951 178.667 158.07 176.695L158.073 176.692Z" fill="#B9D7A4" stroke="#595757" stroke-width="0.5" stroke-linecap="round" stroke-linejoin="round"/>
<path d="M157.424 175.71C155.647 173.15 152.857 169.749 151.231 168.295C148.673 166.006 141.735 159.961 136.631 156.714C131.527 153.467 113.144 141.357 113.144 141.357L91.7566 128.008C89.0296 126.306 85.6662 125.948 82.6527 127.059C78.9755 128.415 74.3934 130.875 72.4809 135.074C72.4809 135.074 66.843 140.459 66.6439 146.046C66.6439 146.046 61.742 159.798 78.1279 163.512L79.8322 163.861C79.8322 163.861 90.5952 171.704 100.281 164.867L101.153 164.256C101.153 164.256 105.364 166.783 112.471 164.211C117.856 162.262 122.797 159.479 124.878 158.244C125.708 158.982 126.248 159.464 126.423 159.627C128.61 161.66 132.809 166.813 140.881 169.608C145.614 171.246 147.723 174.318 150.564 176.273C152.072 177.309 152.935 178.643 156.205 178.321C157.475 178.195 158.154 176.761 157.427 175.713L157.424 175.71Z" fill="#F0F7EB" stroke="#595757" stroke-width="0.5" stroke-linecap="round" stroke-linejoin="round"/>
<path d="M67.2143 199.797L78.2579 194.581" stroke="#595757" stroke-width="0.5" stroke-linecap="round" stroke-linejoin="round"/>
<path d="M121.252 195.652C120.272 194.737 104.867 178.858 104.867 178.858" stroke="#595757" stroke-width="0.5" stroke-linecap="round" stroke-linejoin="round"/>
<path d="M124.876 158.244L124.656 159.876" stroke="#595757" stroke-width="0.5" stroke-linecap="round" stroke-linejoin="round"/>
<path d="M369.414 131.017L369.191 132.653" stroke="#595757" stroke-width="0.5" stroke-linecap="round" stroke-linejoin="round"/>
<path d="M322.524 213.976C322.892 194.471 300.256 178.62 271.433 178.198C242.492 177.773 219.207 192.809 218.876 212.13C218.547 231.192 241.472 247.019 270.027 247.447C298.361 247.871 322.171 232.692 322.524 213.979V213.976Z" fill="#5E8544" stroke="#595757" stroke-width="0.5" stroke-linecap="round" stroke-linejoin="round"/>
<path d="M406.784 173.612C407.152 154.107 384.516 138.256 355.693 137.834C326.752 137.409 303.467 152.444 303.135 171.766C302.807 190.828 325.732 206.655 354.287 207.083C382.621 207.507 406.431 192.327 406.784 173.615V173.612Z" fill="#5E8544" stroke="#595757" stroke-width="0.5" stroke-linecap="round" stroke-linejoin="round"/>
<path d="M322.65 207.694C323.012 188.632 300.373 173.136 271.547 172.718C242.606 172.296 219.328 186.979 218.999 205.86C218.676 224.489 241.605 239.96 270.163 240.388C298.497 240.81 322.304 225.982 322.65 207.694Z" fill="#6BBA51"/>
<path d="M406.91 167.329C407.272 148.267 384.633 132.771 355.807 132.352C326.866 131.931 303.588 146.614 303.259 165.495C302.936 184.123 325.865 199.595 354.422 200.023C382.757 200.445 406.563 185.617 406.91 167.329Z" fill="#6BBA51"/>
<path d="M271.632 171.788C242.691 171.366 219.412 186.049 219.083 204.93C219.065 205.942 219.117 206.942 219.234 207.933C219.068 209.006 218.972 210.096 218.954 211.198C218.625 230.26 241.551 246.088 270.105 246.515C298.44 246.94 322.249 231.76 322.602 213.047C322.623 211.969 322.569 210.9 322.451 209.846C322.62 208.831 322.714 207.804 322.735 206.768C323.097 187.706 300.458 172.21 271.632 171.791V171.788Z" stroke="#595757" stroke-width="0.5" stroke-linecap="round" stroke-linejoin="round"/>
<path d="M355.893 131.425C326.952 131.003 303.673 145.686 303.344 164.568C303.326 165.58 303.378 166.579 303.495 167.57C303.329 168.643 303.233 169.733 303.215 170.835C302.886 189.897 325.812 205.725 354.366 206.152C382.701 206.577 406.51 191.397 406.863 172.684C406.884 171.606 406.83 170.537 406.712 169.483C406.881 168.468 406.975 167.441 406.996 166.405C407.358 147.343 384.719 131.847 355.893 131.428V131.425Z" stroke="#595757" stroke-width="0.5" stroke-linecap="round" stroke-linejoin="round"/>
<path d="M259.912 229.119C257.249 228.351 254.446 227.746 251.535 227.352C251.415 227.336 251.297 227.318 251.176 227.303C243.689 226.249 238.751 223.487 235.922 218.617C234.932 216.912 233.641 215.28 232.006 213.768C231.662 213.452 231.33 213.13 231.008 212.804C227.05 208.786 227.125 204.567 231.43 199.621C232.836 198.007 233.91 196.305 234.682 194.558C236.917 189.505 241.517 186.306 247.647 184.535C249.297 184.059 250.959 183.683 252.633 183.378C255.399 182.875 258.09 182.222 260.633 181.388C267.625 179.102 274.081 178.812 279.951 179.984C281.158 180.225 282.31 180.505 283.417 180.818C285.728 181.472 288.165 181.975 290.672 182.333C291.791 182.493 292.904 182.692 294.017 182.936C300.397 184.336 304.874 187.053 307.507 191.285C308.448 192.797 309.691 194.233 311.154 195.586C312.02 196.384 312.795 197.233 313.459 198.149C316.343 202.136 315.857 206.326 311.757 210.931C310.412 212.443 309.374 214.033 308.614 215.669C306.041 221.207 300.702 224.325 293.884 225.936C292.841 226.183 291.797 226.4 290.747 226.596C288.117 227.083 285.58 227.743 283.167 228.544C275.146 231.213 268.069 231.21 261.734 229.61C261.113 229.454 260.503 229.288 259.903 229.117L259.912 229.119Z" fill="#626363"/>
<path d="M344.173 188.755C341.509 187.987 338.707 187.382 335.796 186.987C335.675 186.972 335.558 186.954 335.437 186.939C327.95 185.885 323.012 183.123 320.182 178.253C319.193 176.548 317.902 174.916 316.267 173.404C315.923 173.088 315.591 172.765 315.269 172.44C311.311 168.422 311.386 164.203 315.691 159.257C317.097 157.643 318.17 155.941 318.943 154.194C321.178 149.14 325.778 145.942 331.908 144.171C333.558 143.695 335.22 143.318 336.894 143.014C339.66 142.511 342.351 141.858 344.894 141.023C351.886 138.737 358.342 138.448 364.212 139.62C365.419 139.861 366.571 140.141 367.678 140.454C369.989 141.108 372.426 141.611 374.933 141.969C376.052 142.129 377.165 142.328 378.278 142.572C384.658 143.972 389.135 146.689 391.768 150.92C392.709 152.432 393.952 153.869 395.415 155.221C396.281 156.02 397.056 156.869 397.72 157.784C400.604 161.772 400.118 165.962 396.018 170.567C394.673 172.079 393.635 173.669 392.875 175.304C390.302 180.843 384.963 183.961 378.145 185.572C377.102 185.819 376.058 186.036 375.008 186.231C372.378 186.719 369.841 187.379 367.428 188.18C359.407 190.849 352.33 190.846 345.995 189.246C345.374 189.09 344.764 188.924 344.164 188.752L344.173 188.755Z" fill="#626363"/>
<path d="M285.743 212.353L309.04 200.628L308.795 202.411L285.14 214.272L285.743 212.353Z" fill="#B9D7A4" stroke="#595757" stroke-width="0.5" stroke-linecap="round" stroke-linejoin="round"/>
<path d="M370.002 171.988L393.298 160.263L393.054 162.046L369.398 173.907L370.002 171.988Z" fill="#B9D7A4" stroke="#595757" stroke-width="0.5" stroke-linecap="round" stroke-linejoin="round"/>
<path d="M285.668 181.021L309.037 200.857L284.353 213.146L285.668 181.021Z" fill="#F0F7EB" stroke="#595757" stroke-width="0.5" stroke-linecap="round" stroke-linejoin="round"/>
<path d="M369.929 140.656L393.298 160.492L368.614 172.781L369.929 140.656Z" fill="#F0F7EB" stroke="#595757" stroke-width="0.5" stroke-linecap="round" stroke-linejoin="round"/>
<path d="M310.984 186.614L307.129 216.395L303.859 218.163L307.705 184.593L310.984 186.614Z" fill="#B9D7A4" stroke="#595757" stroke-width="0.5" stroke-linecap="round" stroke-linejoin="round"/>
<path d="M395.244 146.249L391.388 176.031L388.118 177.799L391.965 144.228L395.244 146.249Z" fill="#B9D7A4" stroke="#595757" stroke-width="0.5" stroke-linecap="round" stroke-linejoin="round"/>
<path d="M303.853 218.165L301.907 216.333L305.358 186.661L307.235 188.492L303.853 218.165Z" fill="#D0E2C9" stroke="#595757" stroke-width="0.5" stroke-linecap="round" stroke-linejoin="round"/>
<path d="M388.113 177.8L386.167 175.969L389.618 146.296L391.494 148.128L388.113 177.8Z" fill="#D0E2C9" stroke="#595757" stroke-width="0.5" stroke-linecap="round" stroke-linejoin="round"/>
<path d="M224.386 162.006L224.724 209.705C224.724 209.705 226.04 221.536 237.023 221.159C237.023 221.159 242.772 233.14 259.81 228.803C259.81 228.803 272.099 232.951 281.562 229.008L284.367 168.973L240.25 149.007L224.386 162.003V162.006Z" fill="#F0F7EB" stroke="#595757" stroke-width="0.5" stroke-linecap="round" stroke-linejoin="round"/>
<path d="M308.645 121.641L308.983 169.34C308.983 169.34 310.298 181.17 321.281 180.794C321.281 180.794 327.031 192.775 344.068 188.438C344.068 188.438 356.358 192.585 365.821 188.643L368.626 128.607L324.509 108.642L308.645 121.638V121.641Z" fill="#F0F7EB" stroke="#595757" stroke-width="0.5" stroke-linecap="round" stroke-linejoin="round"/>
<path d="M260.676 187.839C260.676 187.839 271.022 190.528 281.019 182.086L279.903 205.006C279.903 205.006 269.463 215.277 260.802 208.286L260.673 187.836L260.676 187.839Z" fill="#BBD1AB" stroke="#595757" stroke-width="0.5" stroke-linecap="round" stroke-linejoin="round"/>
<path d="M344.935 147.477C344.935 147.477 355.282 150.166 365.279 141.724L364.163 164.644C364.163 164.644 353.723 174.915 345.062 167.924L344.932 147.474L344.935 147.477Z" fill="#BBD1AB" stroke="#595757" stroke-width="0.5" stroke-linecap="round" stroke-linejoin="round"/>
<path d="M225.397 189.227C225.397 189.227 231.9 196.498 237.463 195.682L236.76 219.816C236.76 219.816 226.688 218.234 225.906 209.741L225.783 208.223L225.397 189.227Z" fill="#BBD1AB" stroke="#595757" stroke-width="0.5" stroke-linecap="round" stroke-linejoin="round"/>
<path d="M311.948 189.03L311.426 192.587L314.907 191.761L315.568 188.238L311.948 189.03Z" fill="#B9D7A4" stroke="#595757" stroke-width="0.5" stroke-linecap="round" stroke-linejoin="round"/>
<path d="M396.207 148.664L395.685 152.221L399.166 151.396L399.827 147.872L396.207 148.664Z" fill="#B9D7A4" stroke="#595757" stroke-width="0.5" stroke-linecap="round" stroke-linejoin="round"/>
<path d="M311.95 189.033L297.145 176.585L297.088 179.112L311.38 192.602L311.95 189.033Z" fill="#D0E2C9" stroke="#595757" stroke-width="0.5" stroke-linecap="round" stroke-linejoin="round"/>
<path d="M396.211 148.668L381.406 136.22L381.349 138.747L395.641 152.237L396.211 148.668Z" fill="#D0E2C9" stroke="#595757" stroke-width="0.5" stroke-linecap="round" stroke-linejoin="round"/>
<path d="M285.583 194.818L307.546 184.72L307.205 188.722L285.975 198.625L285.583 194.818Z" fill="#B9D7A4" stroke="#595757" stroke-width="0.5" stroke-linecap="round" stroke-linejoin="round"/>
<path d="M369.843 154.454L391.806 144.355L391.465 148.358L370.235 158.261L369.843 154.454Z" fill="#B9D7A4" stroke="#595757" stroke-width="0.5" stroke-linecap="round" stroke-linejoin="round"/>
<path d="M307.545 184.72L304.745 183.175L283.524 192.371L285.581 194.819L307.545 184.72Z" fill="#D0E2C9" stroke="#595757" stroke-width="0.5" stroke-linecap="round" stroke-linejoin="round"/>
<path d="M391.806 144.356L389.006 142.811L367.785 152.006L369.842 154.455L391.806 144.356Z" fill="#D0E2C9" stroke="#595757" stroke-width="0.5" stroke-linecap="round" stroke-linejoin="round"/>
<path d="M287.762 172.44L285.409 227.301L281.56 229.008L284.336 168.602L287.762 172.44Z" fill="#B9D7A4" stroke="#595757" stroke-width="0.5" stroke-linecap="round" stroke-linejoin="round"/>
<path d="M372.023 132.075L369.67 186.936L365.821 188.644L368.597 128.238L372.023 132.075Z" fill="#B9D7A4" stroke="#595757" stroke-width="0.5" stroke-linecap="round" stroke-linejoin="round"/>
<path d="M316.718 186.049C315.442 183.191 311.36 180.815 309.653 179.288C307.095 176.999 300.157 170.954 295.053 167.707C289.949 164.46 271.566 152.35 271.566 152.35L246.33 136.601C246.33 136.601 234.327 138.543 230.9 146.067C230.9 146.067 225.262 151.452 225.063 157.039C225.063 157.039 220.161 170.791 236.547 174.505L238.252 174.854C238.252 174.854 249.015 182.697 258.701 175.86L259.572 175.249C259.572 175.249 263.784 177.776 270.89 175.204C276.275 173.255 281.216 170.472 283.298 169.237C284.127 169.975 284.667 170.457 284.842 170.62C287.029 172.653 291.228 177.806 299.3 180.601C304.033 182.239 306.142 185.311 308.983 187.266C310.492 188.302 311.354 189.63 314.621 189.314C316.018 189.179 317.596 188.025 316.715 186.052L316.718 186.049Z" fill="#B9D7A4" stroke="#595757" stroke-width="0.5" stroke-linecap="round" stroke-linejoin="round"/>
<path d="M400.977 145.684C399.701 142.826 395.619 140.45 393.912 138.923C391.354 136.634 384.416 130.589 379.312 127.342C374.208 124.095 355.825 111.984 355.825 111.984L330.589 96.2355C330.589 96.2355 318.586 98.1781 315.159 105.702C315.159 105.702 309.521 111.087 309.322 116.674C309.322 116.674 304.42 130.426 320.806 134.14L322.51 134.489C322.51 134.489 333.273 142.332 342.959 135.495L343.831 134.884C343.831 134.884 348.042 137.411 355.149 134.838C360.534 132.89 365.475 130.107 367.556 128.872C368.386 129.61 368.926 130.092 369.101 130.254C371.288 132.287 375.487 137.441 383.559 140.236C388.292 141.874 390.401 144.946 393.242 146.901C394.75 147.937 395.613 149.265 398.88 148.949C400.277 148.813 401.854 147.66 400.974 145.687L400.977 145.684Z" fill="#B9D7A4" stroke="#595757" stroke-width="0.5" stroke-linecap="round" stroke-linejoin="round"/>
<path d="M316.071 185.068C314.294 182.508 311.504 179.107 309.878 177.653C307.32 175.364 300.382 169.319 295.278 166.072C290.174 162.825 271.791 150.714 271.791 150.714L250.404 137.366C247.677 135.664 244.313 135.306 241.3 136.417C237.623 137.773 233.041 140.233 231.128 144.432C231.128 144.432 225.49 149.817 225.291 155.404C225.291 155.404 220.389 169.156 236.775 172.87L238.479 173.219C238.479 173.219 249.242 181.062 258.929 174.225L259.8 173.614C259.8 173.614 264.011 176.141 271.118 173.568C276.503 171.62 281.444 168.837 283.525 167.602C284.355 168.34 284.895 168.822 285.07 168.984C287.257 171.017 291.456 176.171 299.528 178.966C304.261 180.604 306.37 183.676 309.211 185.631C310.72 186.667 311.582 188.001 314.852 187.679C316.122 187.552 316.801 186.119 316.074 185.071L316.071 185.068Z" fill="#F0F7EB" stroke="#595757" stroke-width="0.5" stroke-linecap="round" stroke-linejoin="round"/>
<path d="M400.332 144.705C398.555 142.145 395.765 138.744 394.139 137.29C391.581 135.001 384.643 128.956 379.539 125.709C374.435 122.462 356.052 110.351 356.052 110.351L334.665 97.0029C331.938 95.3012 328.574 94.9428 325.561 96.0542C321.884 97.4095 317.302 99.8702 315.389 104.069C315.389 104.069 309.751 109.454 309.552 115.041C309.552 115.041 304.65 128.793 321.036 132.507L322.74 132.856C322.74 132.856 333.503 140.699 343.19 133.862L344.061 133.251C344.061 133.251 348.272 135.778 355.379 133.205C360.764 131.257 365.705 128.474 367.786 127.239C368.616 127.977 369.156 128.459 369.331 128.621C371.518 130.654 375.717 135.808 383.789 138.603C388.522 140.241 390.631 143.313 393.472 145.268C394.981 146.304 395.843 147.638 399.113 147.316C400.383 147.19 401.062 145.756 400.335 144.708L400.332 144.705Z" fill="#F0F7EB" stroke="#595757" stroke-width="0.5" stroke-linecap="round" stroke-linejoin="round"/>
<path d="M225.864 209.154L236.904 203.934" stroke="#595757" stroke-width="0.5" stroke-linecap="round" stroke-linejoin="round"/>
<path d="M279.904 205.011C278.924 204.096 263.518 188.217 263.518 188.217" stroke="#595757" stroke-width="0.5" stroke-linecap="round" stroke-linejoin="round"/>
<path d="M364.163 164.647C363.182 163.732 347.777 147.853 347.777 147.853" stroke="#595757" stroke-width="0.5" stroke-linecap="round" stroke-linejoin="round"/>
<path d="M283.525 167.6L283.302 169.236" stroke="#595757" stroke-width="0.5" stroke-linecap="round" stroke-linejoin="round"/>
<path d="M236.684 251.37C237.052 231.865 214.416 216.014 185.593 215.592C156.652 215.167 133.367 230.202 133.035 249.523C132.706 268.585 155.632 284.413 184.187 284.84C212.521 285.265 236.331 270.085 236.684 251.373V251.37Z" fill="#5E8544" stroke="#595757" stroke-width="0.5" stroke-linecap="round" stroke-linejoin="round"/>
<path d="M236.817 245.085C237.179 226.023 214.54 210.527 185.714 210.108C156.773 209.686 133.494 224.369 133.166 243.251C132.843 261.879 155.771 277.351 184.329 277.778C212.664 278.2 236.47 263.373 236.817 245.085Z" fill="#6BBA51"/>
<path d="M185.797 209.184C156.856 208.762 133.578 223.445 133.249 242.327C133.231 243.339 133.282 244.338 133.4 245.329C133.234 246.402 133.137 247.492 133.119 248.594C132.79 267.656 155.716 283.484 184.271 283.911C212.605 284.336 236.415 269.156 236.768 250.444C236.789 249.365 236.734 248.296 236.617 247.242C236.786 246.227 236.879 245.2 236.9 244.164C237.262 225.102 214.623 209.606 185.797 209.187V209.184Z" stroke="#595757" stroke-width="0.5" stroke-linecap="round" stroke-linejoin="round"/>
<path d="M174.078 266.514C171.414 265.746 168.612 265.141 165.701 264.746C165.58 264.731 165.462 264.713 165.342 264.698C157.855 263.644 152.916 260.882 150.087 256.012C149.098 254.307 147.806 252.675 146.171 251.163C145.828 250.847 145.496 250.524 145.173 250.199C141.215 246.181 141.291 241.962 145.595 237.016C147.001 235.402 148.075 233.7 148.847 231.953C151.082 226.899 155.683 223.701 161.812 221.93C163.462 221.454 165.124 221.078 166.799 220.773C169.565 220.27 172.256 219.617 174.798 218.783C181.791 216.497 188.246 216.207 194.116 217.379C195.323 217.62 196.475 217.9 197.582 218.213C199.893 218.867 202.33 219.37 204.837 219.728C205.956 219.888 207.069 220.087 208.183 220.331C214.563 221.731 219.039 224.448 221.673 228.679C222.614 230.191 223.857 231.628 225.32 232.98C226.185 233.779 226.961 234.628 227.624 235.543C230.508 239.531 230.022 243.721 225.923 248.326C224.577 249.838 223.54 251.428 222.78 253.063C220.207 258.602 214.867 261.72 208.05 263.331C207.006 263.578 205.962 263.795 204.913 263.99C202.282 264.478 199.745 265.138 197.332 265.939C189.311 268.608 182.234 268.605 175.9 267.005C175.278 266.849 174.669 266.683 174.068 266.511L174.078 266.514Z" fill="#626363"/>
<path d="M199.908 249.746L223.205 238.021L222.964 239.804L199.305 251.664L199.908 249.746Z" fill="#B9D7A4" stroke="#595757" stroke-width="0.5" stroke-linecap="round" stroke-linejoin="round"/>
<path d="M199.833 218.411L223.206 238.25L198.518 250.535L199.833 218.411Z" fill="#F0F7EB" stroke="#595757" stroke-width="0.5" stroke-linecap="round" stroke-linejoin="round"/>
<path d="M225.145 224.007L221.289 253.791L218.019 255.559L221.866 221.989L225.145 224.007Z" fill="#B9D7A4" stroke="#595757" stroke-width="0.5" stroke-linecap="round" stroke-linejoin="round"/>
<path d="M218.02 255.559L216.074 253.728L219.528 224.052L221.401 225.883L218.02 255.559Z" fill="#D0E2C9" stroke="#595757" stroke-width="0.5" stroke-linecap="round" stroke-linejoin="round"/>
<path d="M138.552 199.4L138.89 247.099C138.89 247.099 140.205 258.929 151.188 258.553C151.188 258.553 156.938 270.534 173.975 266.197C173.975 266.197 186.265 270.344 195.727 266.402L198.533 206.366L154.416 186.401L138.552 199.397V199.4Z" fill="#F0F7EB" stroke="#595757" stroke-width="0.5" stroke-linecap="round" stroke-linejoin="round"/>
<path d="M174.835 225.237C174.835 225.237 185.182 227.926 195.179 219.484L194.063 242.404C194.063 242.404 183.623 252.675 174.962 245.684L174.832 225.234L174.835 225.237Z" fill="#BBD1AB" stroke="#595757" stroke-width="0.5" stroke-linecap="round" stroke-linejoin="round"/>
<path d="M139.563 226.618C139.563 226.618 146.067 233.888 151.629 233.072L150.926 257.206C150.926 257.206 140.854 255.625 140.073 247.131L139.949 245.613L139.563 226.618Z" fill="#BBD1AB" stroke="#595757" stroke-width="0.5" stroke-linecap="round" stroke-linejoin="round"/>
<path d="M226.116 226.425L225.597 229.985L229.075 229.156L229.736 225.632L226.116 226.425Z" fill="#B9D7A4" stroke="#595757" stroke-width="0.5" stroke-linecap="round" stroke-linejoin="round"/>
<path d="M226.111 226.425L211.309 213.98L211.249 216.504L225.541 229.997L226.111 226.425Z" fill="#D0E2C9" stroke="#595757" stroke-width="0.5" stroke-linecap="round" stroke-linejoin="round"/>
<path d="M199.745 232.21L221.708 222.111L221.37 226.114L200.137 236.017L199.745 232.21Z" fill="#B9D7A4" stroke="#595757" stroke-width="0.5" stroke-linecap="round" stroke-linejoin="round"/>
<path d="M221.708 222.111L218.909 220.566L197.687 229.764L199.744 232.21L221.708 222.111Z" fill="#D0E2C9" stroke="#595757" stroke-width="0.5" stroke-linecap="round" stroke-linejoin="round"/>
<path d="M201.929 209.835L199.576 264.696L195.727 266.403L198.502 205.997L201.929 209.835Z" fill="#B9D7A4" stroke="#595757" stroke-width="0.5" stroke-linecap="round" stroke-linejoin="round"/>
<path d="M230.884 223.441C229.608 220.583 225.527 218.206 223.82 216.679C221.262 214.39 214.324 208.345 209.22 205.099C204.116 201.852 185.733 189.741 185.733 189.741L160.496 173.992C160.496 173.992 148.494 175.935 145.067 183.459C145.067 183.459 139.429 188.844 139.23 194.431C139.23 194.431 134.328 208.183 150.714 211.896L152.418 212.246C152.418 212.246 163.181 220.089 172.867 213.252L173.739 212.64C173.739 212.64 177.95 215.167 185.057 212.595C190.442 210.647 195.383 207.864 197.464 206.629C198.294 207.367 198.834 207.849 199.009 208.011C201.196 210.044 205.395 215.197 213.467 217.992C218.2 219.631 220.308 222.703 223.15 224.658C224.658 225.694 225.521 227.022 228.788 226.706C230.185 226.57 231.762 225.417 230.881 223.444L230.884 223.441Z" fill="#B9D7A4" stroke="#595757" stroke-width="0.5" stroke-linecap="round" stroke-linejoin="round"/>
<path d="M230.235 222.459C228.458 219.899 225.668 216.499 224.042 215.044C221.484 212.755 214.546 206.71 209.442 203.463C204.338 200.217 185.955 188.106 185.955 188.106L164.568 174.757C161.841 173.056 158.478 172.697 155.464 173.809C151.787 175.164 147.205 177.625 145.292 181.823C145.292 181.823 139.654 187.208 139.455 192.795C139.455 192.795 134.553 206.548 150.939 210.261L152.644 210.611C152.644 210.611 163.407 218.453 173.093 211.617L173.965 211.005C173.965 211.005 178.176 213.532 185.283 210.96C190.667 209.011 195.608 206.228 197.69 204.993C198.519 205.731 199.059 206.213 199.234 206.376C201.421 208.409 205.62 213.562 213.692 216.357C218.425 217.996 220.534 221.068 223.376 223.022C224.884 224.059 225.747 225.393 229.017 225.071C230.286 224.944 230.965 223.51 230.238 222.462L230.235 222.459Z" fill="#F0F7EB" stroke="#595757" stroke-width="0.5" stroke-linecap="round" stroke-linejoin="round"/>
<path d="M140.029 246.547L151.073 241.33" stroke="#595757" stroke-width="0.5" stroke-linecap="round" stroke-linejoin="round"/>
<path d="M194.064 242.402C193.083 241.486 177.678 225.608 177.678 225.608" stroke="#595757" stroke-width="0.5" stroke-linecap="round" stroke-linejoin="round"/>
<path d="M197.686 204.991L197.463 206.626" stroke="#595757" stroke-width="0.5" stroke-linecap="round" stroke-linejoin="round"/>
</svg>
