<svg width="53" height="60" viewBox="0 0 53 60" fill="none" xmlns="http://www.w3.org/2000/svg">
<g clip-path="url(#clip0_3052_16343)">
<path d="M4.16497 37.7922C4.4998 37.0679 4.79041 36.3325 5.02605 35.5933L3.23757 36.5695C2.56602 38.4234 2.18065 40.2761 2.0802 42.0511C2.41376 41.8699 2.74733 41.688 3.08089 41.5062C3.13206 40.8545 3.26915 40.1923 3.48395 39.5238C3.67537 38.9274 3.90596 38.352 4.16434 37.7922H4.16497Z" fill="white"/>
<path d="M27.0236 24.0552C26.8941 23.9658 26.762 23.8814 26.6294 23.7988L24.8586 24.7658C25.8428 25.3778 26.5675 26.4099 27.0388 27.8939C27.0861 28.0428 27.1379 28.1887 27.1923 28.3327C28.0369 27.8709 28.8822 27.4091 29.7268 26.9474C29.0357 25.8017 28.1355 24.8186 27.0242 24.0552H27.0236Z" fill="white"/>
<path d="M27.3922 28.8217C27.5514 29.1755 27.7308 29.5138 27.9305 29.8352C28.7783 29.3716 29.6261 28.9086 30.4733 28.4456C30.3273 28.0869 30.1643 27.7399 29.9849 27.4048C29.1207 27.8771 28.2564 28.3494 27.3922 28.8223V28.8217Z" fill="white"/>
<path d="M2.05885 42.6628C2.05 43.1078 2.05885 43.5479 2.08601 43.9811C2.45243 43.7806 2.81884 43.5801 3.18526 43.3797C3.1025 42.9651 3.06207 42.5443 3.05954 42.1191C2.72598 42.301 2.39241 42.4816 2.05885 42.6635V42.6628Z" fill="white"/>
<path opacity="0.51" d="M45.423 3.41322C45.1249 3.2084 44.8185 3.02159 44.5057 2.85029C44.2486 2.62748 43.9789 2.41708 43.6946 2.22157C37.7182 -1.88402 28.4789 1.1975 22.8393 9.17781C17.1769 17.1898 17.3866 26.7912 23.3118 30.8496C23.5891 31.0395 23.8747 31.2133 24.1666 31.371C24.442 31.6062 24.7314 31.829 25.0359 32.0376C31.0185 36.1338 40.4177 33.0424 46.0087 25.1384C51.5561 17.2965 51.2901 7.44247 45.423 3.4126V3.41322Z" fill="#6BBA51" stroke="#595757" stroke-miterlimit="10"/>
<path opacity="0.51" d="M45.4227 3.41417C39.3068 -0.786386 29.9556 2.22004 24.3153 10.1997C18.6523 18.2117 18.972 27.8876 25.0355 32.0397C31.0182 36.136 40.4174 33.0446 46.0084 25.1406C51.5558 17.2987 51.2898 7.44466 45.4227 3.41479V3.41417Z" fill="#5E8544"/>
<path opacity="0.51" d="M43.6946 2.22157C37.7182 -1.88402 28.4789 1.1975 22.8393 9.1778C17.1769 17.1898 17.3866 26.7912 23.3118 30.8496C29.158 34.8534 38.4454 31.6863 44.0357 23.7817C49.5825 15.9392 49.4277 6.16021 43.6946 2.22157Z" fill="#6BBA51"/>
<path opacity="0.51" d="M38.8381 25.648C37.977 26.2158 37.1443 26.865 36.3635 27.5999C36.3313 27.6303 36.2997 27.6601 36.2675 27.6899C34.2452 29.5705 32.1693 30.2786 29.8009 29.838C28.972 29.684 28.1034 29.6338 27.2025 29.7151C27.0136 29.7324 26.8253 29.7449 26.6377 29.7535C24.328 29.8566 22.8314 28.7481 22.0038 26.2376C21.7334 25.4177 21.3601 24.6704 20.9033 23.9989C19.5823 22.0544 19.4459 19.9082 20.1585 17.6906C20.3499 17.0942 20.5805 16.5188 20.8389 15.959C21.2666 15.0349 21.6229 14.0921 21.8832 13.1468C22.6002 10.5476 23.9142 8.61797 25.625 7.23268C25.9769 6.9478 26.3307 6.68899 26.6864 6.45128C27.4293 5.95538 28.1438 5.38439 28.8236 4.75629C29.1268 4.47638 29.4427 4.20639 29.775 3.94945C31.6791 2.47602 33.6362 1.88951 35.7324 2.22156C36.4816 2.3401 37.2694 2.35314 38.0755 2.28052C38.5525 2.2377 39.0276 2.23335 39.5014 2.27866C41.5653 2.47665 42.9602 3.69498 43.7107 6.05965C43.9571 6.83546 44.2995 7.54362 44.719 8.18289C46.1398 10.3496 46.0849 12.6863 45.1644 15.0609C45.0235 15.424 44.8725 15.7809 44.7121 16.1322C44.309 17.0141 43.9881 17.9122 43.7461 18.8134C42.9406 21.8061 41.3846 23.8394 39.4186 25.2489C39.226 25.3873 39.0326 25.5201 38.8387 25.6473L38.8381 25.648Z" fill="#5E8544"/>
<g opacity="0.51">
<path d="M20.831 15.9612C21.1658 15.2369 21.4564 14.5014 21.6921 13.7622L19.9036 14.7385C19.232 16.5924 18.8467 18.445 18.7462 20.2201C19.0798 20.0388 19.4133 19.857 19.7469 19.6751C19.7981 19.0234 19.9352 18.3612 20.15 17.6928C20.3414 17.0963 20.572 16.521 20.8304 15.9612H20.831Z" fill="white"/>
<path d="M43.6871 2.2241C43.5576 2.13473 43.4256 2.05032 43.2929 1.96777L41.5221 2.93474C42.5064 3.5467 43.231 4.57884 43.7023 6.06281C43.7496 6.21177 43.8014 6.35762 43.8558 6.50161C44.7004 6.03985 45.5457 5.57809 46.3904 5.11633C45.6992 3.97061 44.799 2.9875 43.6877 2.2241H43.6871Z" fill="white"/>
<path d="M44.0582 6.99067C44.2174 7.34444 44.3968 7.6827 44.5965 8.00419C45.4443 7.54057 46.2921 7.07756 47.1393 6.61456C46.9933 6.25582 46.8303 5.90888 46.6509 5.57373C45.7867 6.04604 44.9225 6.51836 44.0582 6.99129V6.99067Z" fill="white"/>
<path d="M18.7249 20.8318C18.716 21.2768 18.7249 21.7168 18.752 22.15C19.1184 21.9496 19.4849 21.7491 19.8513 21.5486C19.7685 21.134 19.7281 20.7132 19.7256 20.2881C19.392 20.4699 19.0584 20.6505 18.7249 20.8324V20.8318Z" fill="white"/>
</g>
<path opacity="0.51" d="M37.8295 24.6732C36.9874 25.2287 36.173 25.863 35.4099 26.5823C35.3783 26.6115 35.3474 26.6413 35.3158 26.6705C33.3378 28.5095 31.3079 29.2021 28.992 28.7714C28.1814 28.6206 27.3317 28.5715 26.4511 28.6516C26.2666 28.6684 26.0821 28.6808 25.8983 28.6888C23.6398 28.7894 22.176 27.7057 21.3667 25.2504C21.1027 24.4486 20.7369 23.7181 20.2909 23.0614C18.9989 21.1604 18.8656 19.0613 19.5625 16.8922C19.7501 16.3087 19.975 15.7464 20.2283 15.199C20.6465 14.2954 20.9946 13.3737 21.2499 12.4489C21.9511 9.90737 23.2361 8.01998 24.909 6.6651C25.2526 6.38643 25.5988 6.13321 25.9469 5.90108C26.6734 5.41636 27.3721 4.85777 28.0367 4.24395C28.333 3.97024 28.6426 3.70647 28.9673 3.4551C30.8291 2.01396 32.7433 1.44048 34.7933 1.7657C35.5261 1.88176 36.2962 1.89417 37.0847 1.82342C37.5509 1.78184 38.0159 1.77687 38.4789 1.82156C40.4974 2.0152 41.8613 3.20685 42.5954 5.51876C42.8361 6.2772 43.1716 6.96984 43.5816 7.59545C44.9708 9.71435 44.9171 11.999 44.0169 14.3214C43.8791 14.6764 43.7313 15.0252 43.574 15.3691C43.1798 16.2312 42.8664 17.11 42.6289 17.9907C41.8411 20.9177 40.3192 22.9056 38.3968 24.2841C38.2079 24.4194 38.019 24.5491 37.8301 24.6739L37.8295 24.6732Z" fill="#F0F7EB"/>
<g opacity="0.51">
<mask id="mask0_3052_16343" style="mask-type:luminance" maskUnits="userSpaceOnUse" x="16" y="1" width="29" height="21">
<path d="M20.3314 14.6891L43.425 1.78955L44.952 6.08506L16.666 21.6013L20.3314 14.6891Z" fill="white"/>
</mask>
<g mask="url(#mask0_3052_16343)">
<path d="M37.8615 24.871C37.0194 25.4265 36.2051 26.0608 35.4419 26.7801C35.4104 26.8093 35.3794 26.8391 35.3478 26.8682C33.3698 28.7072 31.34 29.3999 29.024 28.9691C28.2135 28.8183 27.3638 28.7693 26.4831 28.8493C26.2986 28.8661 26.1142 28.8785 25.9303 28.8866C23.6718 28.9871 22.208 27.9035 21.3988 25.4482C21.1347 24.6463 20.7689 23.9158 20.3229 23.2592C19.031 21.3581 18.8977 19.2591 19.5945 17.0899C19.7821 16.5065 20.007 15.9442 20.2604 15.3968C20.6786 14.4931 21.0267 13.5715 21.2819 12.6467C21.9831 10.1051 23.2681 8.21773 24.941 6.86286C25.2847 6.58418 25.6309 6.33096 25.979 6.09884C26.7055 5.61411 27.4042 5.05553 28.0688 4.4417C28.3651 4.168 28.6746 3.90422 28.9994 3.65286C30.8611 2.21171 32.7753 1.63823 34.8254 1.96345C35.5582 2.07951 36.3283 2.09193 37.1167 2.02117C37.5829 1.97959 38.0479 1.97462 38.511 2.01931C39.5199 2.11613 40.3658 2.46245 41.0506 3.07379C41.7354 3.68513 42.2604 4.56087 42.6275 5.71714C42.8682 6.47557 43.2036 7.16821 43.6136 7.79383C45.0028 9.91272 44.9491 12.1973 44.0489 14.5198C43.9112 14.8748 43.7633 15.2236 43.606 15.5675C43.2118 16.4295 42.8985 17.3084 42.6609 18.1891C41.8731 21.1161 40.3513 23.104 38.4288 24.4825C38.24 24.6178 38.0511 24.7475 37.8622 24.8722L37.8615 24.871Z" fill="white"/>
</g>
</g>
<g opacity="0.51">
<mask id="mask1_3052_16343" style="mask-type:luminance" maskUnits="userSpaceOnUse" x="17" y="7" width="29" height="16">
<path d="M44.0586 7.13623L17.9181 21.2529L18.1594 22.5302L45.9817 7.39256L44.0586 7.13623Z" fill="white"/>
</mask>
<g mask="url(#mask1_3052_16343)">
<path d="M37.7852 24.6635C36.9431 25.2189 36.1287 25.8532 35.3656 26.5726C35.334 26.6018 35.303 26.6315 35.2715 26.6607C33.2934 28.4997 31.2636 29.1923 28.9476 28.7616C28.1371 28.6108 27.2874 28.5618 26.4067 28.6418C26.2223 28.6586 26.0378 28.671 25.854 28.6791C23.5955 28.7796 22.1317 27.696 21.3224 25.2407C21.0584 24.4388 20.6926 23.7083 20.2466 23.0516C18.9546 21.1506 18.8213 19.0516 19.5181 16.8824C19.7058 16.299 19.9307 15.7367 20.184 15.1893C20.6022 14.2856 20.9503 13.3639 21.2055 12.4392C21.9068 9.89761 23.1918 8.01021 24.8646 6.65534C25.2083 6.37666 25.5545 6.12344 25.9026 5.89132C26.6291 5.40659 27.3278 4.84801 27.9924 4.23418C28.2887 3.96048 28.5983 3.6967 28.923 3.44534C30.7848 2.00419 32.699 1.43071 34.749 1.75593C35.4818 1.87199 36.2519 1.88441 37.0404 1.81365C37.5066 1.77207 37.9716 1.7671 38.4346 1.81179C40.4531 2.00543 41.817 3.19708 42.5511 5.509C42.7918 6.26743 43.1273 6.96007 43.5373 7.58569C44.9265 9.70458 44.8728 11.9892 43.9725 14.3117C43.8348 14.6667 43.687 15.0155 43.5297 15.3593C43.1355 16.2214 42.8221 17.1002 42.5846 17.9809C41.7968 20.9079 40.2749 22.8959 38.3525 24.2743C38.1636 24.4096 37.9747 24.5393 37.7858 24.6641L37.7852 24.6635Z" fill="white"/>
</g>
</g>
<mask id="mask2_3052_16343" style="mask-type:luminance" maskUnits="userSpaceOnUse" x="0" y="23" width="29" height="21">
<path d="M3.66604 36.5226L26.759 23.623L28.2866 27.9186L0 43.4348L3.66604 36.5226Z" fill="white"/>
</mask>
<g mask="url(#mask2_3052_16343)">
<path d="M21.1955 46.7045C20.3534 47.26 19.5391 47.8943 18.7759 48.6136C18.7443 48.6428 18.7134 48.6726 18.6818 48.7017C16.7038 50.5407 14.674 51.2334 12.358 50.8026C11.5474 50.6518 10.6977 50.6028 9.81708 50.6828C9.63261 50.6996 9.44814 50.712 9.2643 50.7201C7.0058 50.8206 5.54203 49.737 4.73276 47.2817C4.46869 46.4798 4.10291 45.7493 3.65689 45.0927C2.36496 43.1916 2.23166 41.0926 2.92848 38.9234C3.11611 38.34 3.34102 37.7777 3.59435 37.2303C4.01257 36.3266 4.36066 35.4049 4.61589 34.4802C5.31713 31.9386 6.60211 30.0512 8.27498 28.6964C8.61865 28.4177 8.96485 28.1645 9.31295 27.9323C10.0395 27.4476 10.7382 26.889 11.4028 26.2752C11.6991 26.0015 12.0086 25.7377 12.3333 25.4864C14.1951 24.0452 16.1093 23.4717 18.1593 23.7969C18.8922 23.913 19.6623 23.9254 20.4507 23.8547C20.9169 23.8131 21.3819 23.8081 21.845 23.8528C22.8539 23.9496 23.6998 24.2959 24.3846 24.9073C25.0694 25.5186 25.5944 26.3944 25.9614 27.5506C26.2021 28.3091 26.5376 29.0017 26.9476 29.6273C28.3368 31.7462 28.2831 34.0308 27.3829 36.3533C27.2452 36.7083 27.0973 37.0571 26.94 37.401C26.5458 38.263 26.2325 39.1419 25.9949 40.0226C25.2071 42.9496 23.6852 44.9375 21.7628 46.316C21.5739 46.4513 21.385 46.581 21.1962 46.7057L21.1955 46.7045Z" fill="white"/>
</g>
<mask id="mask3_3052_16343" style="mask-type:luminance" maskUnits="userSpaceOnUse" x="1" y="28" width="29" height="17">
<path d="M27.3926 28.9697L1.25208 43.0864L1.49404 44.3637L29.3163 29.2261L27.3926 28.9697Z" fill="white"/>
</mask>
<g mask="url(#mask3_3052_16343)">
<path d="M21.1192 46.497C20.277 47.0524 19.4627 47.6867 18.6996 48.4061C18.668 48.4353 18.637 48.465 18.6054 48.4942C16.6274 50.3332 14.5976 51.0258 12.2816 50.5951C11.4711 50.4443 10.6214 50.3953 9.74073 50.4753C9.55626 50.4921 9.37179 50.5045 9.18795 50.5126C6.92944 50.6131 5.46568 49.5295 4.65641 47.0742C4.39233 46.2723 4.02655 45.5418 3.58054 44.8851C2.28861 42.9841 2.15531 40.8851 2.85213 38.7159C3.03976 38.1325 3.26466 37.5702 3.51799 37.0228C3.93621 36.1191 4.28431 35.1974 4.53953 34.2727C5.24077 31.7311 6.52575 29.8437 8.19863 28.4888C8.5423 28.2102 8.8885 27.9569 9.23659 27.7248C9.9631 27.2401 10.6618 26.6815 11.3264 26.0677C11.6227 25.794 11.9323 25.5302 12.257 25.2788C14.1188 23.8377 16.033 23.2642 18.083 23.5894C18.8158 23.7055 19.5859 23.7179 20.3743 23.6471C20.8406 23.6056 21.3055 23.6006 21.7686 23.6453C23.7871 23.8389 25.151 25.0306 25.8851 27.3425C26.1258 28.1009 26.4612 28.7936 26.8713 29.4192C28.2605 31.5381 28.2068 33.8227 27.3065 36.1452C27.1688 36.5002 27.021 36.849 26.8637 37.1928C26.4695 38.0549 26.1561 38.9337 25.9186 39.8144C25.1308 42.7414 23.6089 44.7294 21.6865 46.1078C21.4976 46.2431 21.3087 46.3728 21.1198 46.4976L21.1192 46.497Z" fill="white"/>
</g>
<g opacity="0.51">
<path d="M45.0858 2.2642C38.5346 -2.23364 28.6489 0.801329 22.7724 9.11492C9.27508 29.3264 31.3705 44.5236 46.0094 25.1115C51.7899 16.9419 51.3711 6.57895 45.0858 2.2642Z" stroke="#231815" stroke-miterlimit="10"/>
</g>
<path d="M28.7546 25.2443C28.4564 25.0395 28.15 24.8526 27.8373 24.6813C27.5802 24.4585 27.3104 24.2481 27.0261 24.0526C21.0498 19.947 11.8104 23.0286 6.17081 31.0089C0.508435 39.0208 0.718176 48.6223 6.64336 52.6807C6.92069 52.8706 7.20624 53.0444 7.49811 53.202C7.77356 53.4373 8.0629 53.6601 8.3674 53.8686C14.3501 57.9649 23.7492 54.8734 29.3402 46.9695C34.8876 39.1276 34.6217 29.2735 28.7546 25.2437V25.2443Z" fill="#6BBA51" stroke="#595757" stroke-miterlimit="10"/>
<path d="M28.7543 25.2452C22.6383 21.0447 13.2871 24.0511 7.64689 32.0308C1.98388 40.0427 2.30355 49.7187 8.36708 53.8708C14.3498 57.9671 23.7489 54.8756 29.3399 46.9717C34.8873 39.1298 34.6213 29.2757 28.7543 25.2458V25.2452Z" fill="#5E8544"/>
<path d="M27.0261 24.0526C21.0498 19.947 11.8104 23.0286 6.17081 31.0089C0.508435 39.0208 0.718176 48.6223 6.64335 52.6807C12.4896 56.6845 21.7769 53.5173 27.3673 45.6127C32.914 37.7702 32.7592 27.9913 27.0261 24.0526Z" fill="#6BBA51"/>
<path d="M22.1696 47.479C21.3085 48.0469 20.4759 48.6961 19.695 49.4309C19.6628 49.4614 19.6312 49.4912 19.599 49.5209C17.5768 51.4015 15.5008 52.1097 13.1324 51.669C12.3036 51.5151 11.4349 51.4648 10.534 51.5461C10.3451 51.5635 10.1569 51.5759 9.96925 51.5846C7.65957 51.6876 6.16296 50.5792 5.33537 48.0686C5.06498 47.2488 4.69161 46.5015 4.23486 45.8299C2.91387 43.8855 2.77741 41.7392 3.49003 39.5217C3.68145 38.9252 3.91204 38.3499 4.17042 37.7901C4.59812 36.8659 4.95442 35.9231 5.2147 34.9779C5.93174 32.3786 7.24578 30.449 8.95656 29.0637C9.30844 28.7789 9.66222 28.52 10.0179 28.2823C10.7608 27.7864 11.4753 27.2154 12.1551 26.5873C12.4583 26.3074 12.7742 26.0374 13.1065 25.7805C15.0106 24.3071 16.9678 23.7206 19.0639 24.0526C19.8132 24.1712 20.601 24.1842 21.4071 24.1116C21.884 24.0687 22.3591 24.0644 22.8329 24.1097C24.8969 24.3077 26.2918 25.526 27.0423 27.8907C27.2887 28.6665 27.6311 29.3747 28.0506 30.0139C29.4714 32.1806 29.4164 34.5174 28.4959 36.892C28.3551 37.2551 28.2041 37.6119 28.0436 37.9632C27.6406 38.8452 27.3196 39.7432 27.0777 40.6444C26.2722 43.6372 24.7162 45.6704 22.7502 47.0799C22.5575 47.2183 22.3642 47.3512 22.1702 47.4784L22.1696 47.479Z" fill="#5E8544"/>
<path d="M21.1635 46.5043C20.3214 47.0598 19.507 47.6941 18.7439 48.4134C18.7123 48.4426 18.6813 48.4724 18.6497 48.5015C16.6717 50.3405 14.6419 51.0332 12.3259 50.6024C11.5154 50.4516 10.6657 50.4026 9.78504 50.4826C9.60057 50.4994 9.4161 50.5118 9.23226 50.5199C6.97375 50.6204 5.50999 49.5368 4.70072 47.0815C4.43665 46.2796 4.07086 45.5491 3.62485 44.8925C2.33292 42.9914 2.19962 40.8924 2.89644 38.7232C3.08407 38.1398 3.30897 37.5775 3.5623 37.0301C3.98052 36.1264 4.32862 35.2048 4.58384 34.28C5.28509 31.7384 6.57007 29.851 8.24294 28.4962C8.58661 28.2175 8.93281 27.9643 9.2809 27.7321C10.0074 27.2474 10.7061 26.6888 11.3707 26.075C11.667 25.8013 11.9766 25.5375 12.3013 25.2862C14.1631 23.845 16.0773 23.2715 18.1273 23.5968C18.8601 23.7128 19.6302 23.7252 20.4186 23.6545C20.8849 23.6129 21.3498 23.6079 21.8129 23.6526C23.8314 23.8463 25.1953 25.0379 25.9294 27.3498C26.1701 28.1083 26.5056 28.8009 26.9156 29.4265C28.3048 31.5454 28.2511 33.83 27.3508 36.1525C27.2131 36.5075 27.0653 36.8563 26.908 37.2001C26.5138 38.0622 26.2004 38.9411 25.9629 39.8218C25.1751 42.7487 23.6532 44.7367 21.7308 46.1151C21.5419 46.2504 21.353 46.3802 21.1641 46.5049L21.1635 46.5043Z" fill="#F0F7EB"/>
</g>
<defs>
<clipPath id="clip0_3052_16343">
<rect width="53" height="60" fill="white"/>
</clipPath>
</defs>
</svg>
