<svg width="57" height="61" viewBox="0 0 57 61" fill="none" xmlns="http://www.w3.org/2000/svg">
<path d="M36.0195 19.8099L35.9016 20.674" stroke="#595757" stroke-width="0.5" stroke-linecap="round" stroke-linejoin="round"/>
<path d="M55.7629 42.3122C55.9574 32.0071 43.9979 23.6323 28.7697 23.4095C13.4793 23.1851 1.17716 31.1287 1.00185 41.3367C0.828127 51.4079 12.9406 59.77 28.027 59.9959C42.997 60.2203 55.5765 52.2003 55.7629 42.3138V42.3122Z" fill="#5E8544" stroke="#595757" stroke-width="0.5" stroke-linecap="round" stroke-linejoin="round"/>
<path d="M55.8303 38.9937C56.0216 28.9225 44.0605 20.7354 28.8307 20.5143C13.5403 20.2915 1.24135 28.0489 1.06764 38.0246C0.897105 47.8666 13.0112 56.0409 28.0992 56.2669C43.0692 56.4897 55.6471 48.6559 55.8303 38.9937Z" fill="#6BBA51"/>
<path d="M28.8766 20.0245C13.5862 19.8017 1.28731 27.5592 1.11359 37.5348C1.10403 38.0695 1.13112 38.5978 1.19328 39.1213C1.10562 39.6878 1.05462 40.2639 1.04506 40.8463C0.87134 50.9174 12.9838 59.2795 28.0702 59.5055C43.0403 59.7299 55.6197 51.7099 55.8062 41.8233C55.8173 41.2536 55.7886 40.6887 55.7265 40.1318C55.8157 39.5955 55.8651 39.0529 55.8763 38.5055C56.0675 28.4344 44.1065 20.2473 28.8766 20.0261V20.0245Z" stroke="#595757" stroke-width="0.5" stroke-linecap="round" stroke-linejoin="round"/>
<path d="M22.6833 50.3153C21.276 49.9096 19.7954 49.5897 18.2575 49.3813C18.1937 49.3733 18.1316 49.3638 18.0678 49.3558C14.1121 48.7989 11.5032 47.3397 10.0082 44.7666C9.48549 43.8659 8.80337 43.0035 7.93956 42.2046C7.75787 42.0376 7.58256 41.8673 7.41203 41.6954C5.32103 39.5727 5.36088 37.3433 7.63516 34.7304C8.37784 33.8775 8.94521 32.9784 9.35321 32.0555C10.5342 29.3854 12.9646 27.6954 16.2031 26.7598C17.0749 26.5084 17.9531 26.3094 18.8376 26.1487C20.2991 25.883 21.7207 25.5377 23.0642 25.0969C26.7585 23.8891 30.1691 23.7364 33.2706 24.3554C33.9081 24.4827 34.5169 24.6307 35.1018 24.7961C36.3226 25.1414 37.6103 25.4072 38.9347 25.5966C39.526 25.6809 40.1141 25.7859 40.7022 25.9148C44.073 26.6547 46.4381 28.0901 47.8294 30.3258C48.3267 31.1246 48.9833 31.8837 49.7562 32.5981C50.2137 33.0198 50.6232 33.4686 50.9739 33.9523C52.4975 36.0592 52.2409 38.2726 50.075 40.7057C49.3642 41.5045 48.816 42.3447 48.4143 43.2087C47.0549 46.1351 44.2339 47.782 40.6321 48.6334C40.0806 48.7639 39.5292 48.8784 38.9746 48.9819C37.5848 49.2396 36.2445 49.5881 34.9695 50.0114C30.7317 51.4213 26.9928 51.4197 23.6459 50.5747C23.3176 50.492 22.9957 50.4044 22.6785 50.3137L22.6833 50.3153Z" fill="#626363"/>
<path d="M36.3314 41.4565L48.6399 35.2617L48.5108 36.2037L36.0127 42.4701L36.3314 41.4565Z" fill="#B9D7A4" stroke="#595757" stroke-width="0.5" stroke-linecap="round" stroke-linejoin="round"/>
<path d="M36.2919 24.9029L48.6387 35.383L35.597 41.8754L36.2919 24.9029Z" fill="#F0F7EB" stroke="#595757" stroke-width="0.5" stroke-linecap="round" stroke-linejoin="round"/>
<path d="M49.6667 27.8555L47.6299 43.59L45.9023 44.5241L47.9343 26.7878L49.6667 27.8555Z" fill="#B9D7A4" stroke="#595757" stroke-width="0.5" stroke-linecap="round" stroke-linejoin="round"/>
<path d="M45.8993 44.5251L44.8713 43.5576L46.6946 27.8804L47.6859 28.8479L45.8993 44.5251Z" fill="#D0E2C9" stroke="#595757" stroke-width="0.5" stroke-linecap="round" stroke-linejoin="round"/>
<path d="M3.91376 14.854L4.09226 40.0549C4.09226 40.0549 4.78713 46.3054 10.59 46.1065C10.59 46.1065 13.6276 52.4366 22.6291 50.1452C22.6291 50.1452 29.122 52.3363 34.1216 50.2534L35.6038 18.5346L12.2953 7.98608L3.91376 14.8524V14.854Z" fill="#F0F7EB" stroke="#595757" stroke-width="0.5" stroke-linecap="round" stroke-linejoin="round"/>
<path d="M23.0834 28.5061C23.0834 28.5061 28.5499 29.9271 33.8316 25.4667L33.2419 37.5763C33.2419 37.5763 27.726 43.0025 23.1503 39.3092L23.0818 28.5045L23.0834 28.5061Z" fill="#BBD1AB" stroke="#595757" stroke-width="0.5" stroke-linecap="round" stroke-linejoin="round"/>
<path d="M50.1742 29.1324L49.8984 31.0117L51.7376 30.5757L52.0866 28.7139L50.1742 29.1324Z" fill="#B9D7A4" stroke="#595757" stroke-width="0.5" stroke-linecap="round" stroke-linejoin="round"/>
<path d="M50.1783 29.1338L42.3562 22.5571L42.3259 23.8921L49.8771 31.0194L50.1783 29.1338Z" fill="#D0E2C9" stroke="#595757" stroke-width="0.5" stroke-linecap="round" stroke-linejoin="round"/>
<path d="M36.2452 32.1933L47.8493 26.8578L47.6692 28.9726L36.4524 34.2047L36.2452 32.1933Z" fill="#B9D7A4" stroke="#595757" stroke-width="0.5" stroke-linecap="round" stroke-linejoin="round"/>
<path d="M47.8497 26.8551L46.3708 26.0388L35.1588 30.8969L36.2457 32.1906L47.8497 26.8551Z" fill="#D0E2C9" stroke="#595757" stroke-width="0.5" stroke-linecap="round" stroke-linejoin="round"/>
<path d="M37.3984 20.368L36.1553 49.3529L34.1216 50.2552L35.5879 18.3407L37.3984 20.368Z" fill="#B9D7A4" stroke="#595757" stroke-width="0.5" stroke-linecap="round" stroke-linejoin="round"/>
<path d="M52.697 27.5597C52.0228 26.0495 49.8665 24.794 48.9644 23.9873C47.6129 22.7779 43.9473 19.5842 41.2507 17.8688C38.5541 16.1534 28.8418 9.75495 28.8418 9.75495L15.5085 1.4342C15.5085 1.4342 9.16698 2.46057 7.35648 6.43556C7.35648 6.43556 4.37777 9.28076 4.27258 12.2326C4.27258 12.2326 1.68274 19.4983 10.34 21.4603L11.2404 21.6449C11.2404 21.6449 16.9269 25.7886 22.0444 22.1764L22.505 21.8534C22.505 21.8534 24.7299 23.1884 28.4848 21.8295C31.3296 20.8 33.9402 19.3296 35.0398 18.6772C35.4781 19.0671 35.7634 19.3217 35.8558 19.4076C37.0113 20.4817 39.2298 23.2044 43.4947 24.6811C45.9953 25.5467 47.1093 27.1698 48.6106 28.2025C49.4075 28.7499 49.8633 29.4517 51.5893 29.2846C52.3272 29.213 53.1607 28.6035 52.6954 27.5612L52.697 27.5597Z" fill="#B9D7A4" stroke="#595757" stroke-width="0.5" stroke-linecap="round" stroke-linejoin="round"/>
<path d="M52.3541 27.0405C51.4154 25.6879 49.9412 23.8914 49.0821 23.1228C47.7306 21.9134 44.065 18.7197 41.3684 17.0043C38.6718 15.289 28.9595 8.89045 28.9595 8.89045L17.6598 1.83795C16.2191 0.93888 14.4421 0.74952 12.8499 1.3367C10.9071 2.05277 8.48624 3.35284 7.47581 5.57107C7.47581 5.57107 4.49709 8.41625 4.3919 11.3681C4.3919 11.3681 1.80207 18.6338 10.4593 20.5958L11.3598 20.7804C11.3598 20.7804 17.0462 24.9241 22.1638 21.3119L22.6244 20.9889C22.6244 20.9889 24.8492 22.3239 28.6041 20.965C31.4489 19.9354 34.0595 18.4651 35.1592 17.8127C35.5974 18.2026 35.8827 18.4572 35.9752 18.5431C37.1306 19.6172 39.3491 22.3399 43.614 23.8166C46.1146 24.6822 47.2286 26.3053 48.7299 27.338C49.5268 27.8854 49.9826 28.5904 51.7102 28.4201C52.3812 28.3533 52.7398 27.5958 52.3557 27.0421L52.3541 27.0405Z" fill="#F0F7EB" stroke="#595757" stroke-width="0.5" stroke-linecap="round" stroke-linejoin="round"/>
<path d="M33.2453 37.5765C32.7273 37.0927 24.5881 28.7036 24.5881 28.7036" stroke="#595757" stroke-width="0.5" stroke-linecap="round" stroke-linejoin="round"/>
</svg>
